<?xml version="1.0" encoding="UTF-8" standalone="no"?>
<svg
   xmlns:dc="http://purl.org/dc/elements/1.1/"
   xmlns:cc="http://creativecommons.org/ns#"
   xmlns:rdf="http://www.w3.org/1999/02/22-rdf-syntax-ns#"
   xmlns:svg="http://www.w3.org/2000/svg"
   xmlns="http://www.w3.org/2000/svg"
   viewBox="0 0 864.34668 365"
   height="365"
   width="864.34668"
   xml:space="preserve"
   id="svg2"
   version="1.1"><metadata
     id="metadata8"><rdf:RDF><cc:Work
         rdf:about=""><dc:format>image/svg+xml</dc:format><dc:type
           rdf:resource="http://purl.org/dc/dcmitype/StillImage" /></cc:Work></rdf:RDF></metadata><defs
     id="defs6" /><g
     transform="matrix(1.3333333,0,0,-1.3333333,0,365)"
     id="g10"><g
       transform="scale(0.1)"
       id="g12"><path
         id="path14"
         style="fill:#fff200;fill-opacity:1;fill-rule:nonzero;stroke:none"
         d="m 2832.42,1673.2 c -4.93,19.27 -12.51,32.23 -7.76,59.53 21.01,67.3 -10.32,76.16 -29.76,-1.46 0.73,-27.57 13.33,-51.77 22.82,-89.48 23.02,-82.73 37.26,-42.28 14.7,31.41 z m -428.52,545.04 c -40,59.53 -80.63,122.54 -108.02,189.83 -18.26,44.66 -30.59,91.22 -33.15,139.98 -0.18,2.83 -0.27,5.66 -0.36,8.49 -3.29,67.58 -30.32,71.6 -41.46,6.85 0.18,-5.2 0.37,-10.31 0.82,-15.34 v -0.09 c 3.47,-48.39 15.71,-94.96 33.24,-139.89 13.51,-34.6 30.14,-68.21 48.3,-100.99 18.17,-32.69 37.81,-64.56 57.35,-95.6 8.58,-14.98 -1.37,-48.85 -11.87,-83.37 -5.75,-18.81 -11.6,-37.8 -14.8,-53.97 -2.55,-13.05 -31.22,-16.61 -33.78,-29.76 10.14,-6.94 46.48,-23.38 56.62,-30.22 7.66,33.32 22.64,75.88 34.15,113.95 11.95,39.72 20.17,74.69 12.96,90.13 z M 1232.1,1661.6 h -0.09 c -0.46,-0.18 -0.91,-0.36 -1.37,-0.54 -58.9,-25.39 -155.87,-78.35 -236.316,-111.87 -75.699,-23.19 -67.933,-38.89 -8.308,-23.83 84.644,32.42 172.124,50.95 254.114,89.4 36.35,15.52 76.98,32.78 118.25,46.84 18.08,6.21 36.34,11.69 54.43,16.16 9.13,2.38 15.97,-7.85 23.19,-16.16 4.47,-5.2 9.22,-9.68 14.79,-9.68 0.82,0 1.64,0.19 2.56,0.37 0.27,1.91 0.73,5.2 1.36,9.31 2.66,17.35 8.13,49.67 9.05,57.62 -77.07,-19.27 -169.84,-31.41 -231.66,-57.62" /><path
         id="path16"
         style="fill:#fff200;fill-opacity:1;fill-rule:nonzero;stroke:none"
         d="m 2484.89,2127.11 h -0.36 c -14.88,-45.02 -34.7,-95.7 -48.03,-138.98 h -0.1 c -2.46,-8.13 -4.83,-15.98 -6.75,-23.56 -5.3,3.65 -18.9,13.97 -31.6,23.65 -10.31,7.85 -20.18,15.34 -24.47,18.26 3.11,13.52 33.42,4.66 36.53,18.17 7.12,30.78 21.09,68.4 32.69,103.46 h 0.36 c 13.61,42 23.47,80.44 13.88,99.35 -41.27,56.25 -83.82,115.96 -113.32,180.61 l -0.15,0.34 c -20.27,44.29 -34.91,90.43 -38.38,139.64 0,0.46 -0.09,0.91 -0.09,1.38 3.47,30.12 13.15,44.19 22.73,44.19 10.33,0 20.46,-16.08 22.74,-45.57 0.18,-2.1 0.28,-4.1 0.37,-6.3 0.82,-11.78 2.28,-23.37 4.38,-34.88 1.01,-5.57 2.19,-11.05 3.47,-16.62 1.28,-5.57 2.74,-11.14 4.39,-16.71 0.72,-2.74 1.55,-5.48 2.46,-8.22 3.56,-11.5 7.67,-22.82 12.33,-34.05 1,-2.47 2.01,-4.84 3.1,-7.31 2.1,-4.93 4.67,-9.39 6.95,-14.32 l 0.26,-0.47 c 29.5,-62.1 72.14,-119.17 113.41,-172.49 9.68,-18.35 -0.73,-60.54 -16.8,-109.57" /><path
         id="path18"
         style="fill:#fff200;fill-opacity:1;fill-rule:nonzero;stroke:none"
         d="m 2712.26,1856.64 c -0.73,-2.46 -1.83,-5.29 -3.2,-8.58 -0.09,0 -0.09,-0.09 -0.09,-0.18 h -0.09 c 0,0.09 0,0.27 0.09,0.36 0,0.09 0,0.18 0.09,0.18 1.37,3.11 2.38,5.85 3.2,8.22" /><path
         id="path20"
         style="fill:#fff200;fill-opacity:1;fill-rule:nonzero;stroke:none"
         d="m 1713.86,1274.71 c -188.11,34.98 -179.61,242.07 -33.6,352.01 l 33.6,-352.01" /><path
         id="path22"
         style="fill:#fff200;fill-opacity:1;fill-rule:nonzero;stroke:none"
         d="m 2043.13,1610.01 c -34.79,-274.67 -106.47,-361.59 -300.78,-339.31 l -35.43,370.81 -2.83,-0.27 c 137.97,58.53 344.61,32.69 339.04,-31.23" /><path
         id="path24"
         style="fill:#fff200;fill-opacity:1;fill-rule:nonzero;stroke:none"
         d="m 1680.26,1626.72 c -146.01,-109.94 -154.51,-317.03 33.6,-352.01 z m 0,0 c -146.01,-109.94 -154.51,-317.03 33.6,-352.01 z m 0,0 c -146.01,-109.94 -154.51,-317.03 33.6,-352.01 z m 0,0 c -146.01,-109.94 -154.51,-317.03 33.6,-352.01 z m 0,0 c -146.01,-109.94 -154.51,-317.03 33.6,-352.01 z m 0,0 c -146.01,-109.94 -154.51,-317.03 33.6,-352.01 z m 0,0 c -146.01,-109.94 -154.51,-317.03 33.6,-352.01 z m 0,0 c -146.01,-109.94 -154.51,-317.03 33.6,-352.01 z m 0,0 c -146.01,-109.94 -154.51,-317.03 33.6,-352.01 z m 0,0 c -146.01,-109.94 -154.51,-317.03 33.6,-352.01 z m 0,0 c -146.01,-109.94 -154.51,-317.03 33.6,-352.01 z m 0,0 c -146.01,-109.94 -154.51,-317.03 33.6,-352.01 z m 0,0 c -146.01,-109.94 -154.51,-317.03 33.6,-352.01 z m 0,0 c -146.01,-109.94 -154.51,-317.03 33.6,-352.01 z m 0,0 c -146.01,-109.94 -154.51,-317.03 33.6,-352.01 z m 0,0 c -146.01,-109.94 -154.51,-317.03 33.6,-352.01 z m 0,0 c -146.01,-109.94 -154.51,-317.03 33.6,-352.01 z m 0,0 c -146.01,-109.94 -154.51,-317.03 33.6,-352.01 z m 0,0 c -146.01,-109.94 -154.51,-317.03 33.6,-352.01 z m 0,0 c -146.01,-109.94 -154.51,-317.03 33.6,-352.01 z m 0,0 c -146.01,-109.94 -154.51,-317.03 33.6,-352.01 z m 0,0 c -146.01,-109.94 -154.51,-317.03 33.6,-352.01 z m 0,0 c -146.01,-109.94 -154.51,-317.03 33.6,-352.01 z m 0,0 c -146.01,-109.94 -154.51,-317.03 33.6,-352.01 z m 0,0 c -146.01,-109.94 -154.51,-317.03 33.6,-352.01 z m 0,0 c -146.01,-109.94 -154.51,-317.03 33.6,-352.01 z m -448.16,34.88 h -0.09 c -0.46,-0.18 -0.91,-0.36 -1.37,-0.54 -58.9,-25.39 -155.87,-78.35 -236.316,-111.87 -75.699,-23.19 -67.933,-38.89 -8.308,-23.83 84.644,32.42 172.124,50.95 254.114,89.4 36.35,15.52 76.98,32.78 118.25,46.84 18.08,6.21 36.34,11.69 54.43,16.16 9.13,2.38 15.97,-7.85 23.19,-16.16 4.47,-5.2 9.22,-9.68 14.79,-9.68 0.82,0 1.64,0.19 2.56,0.37 0.27,1.91 0.73,5.2 1.36,9.31 2.66,17.35 8.13,49.67 9.05,57.62 -77.07,-19.27 -169.84,-31.41 -231.66,-57.62 z m 448.16,-34.88 c -146.01,-109.94 -154.51,-317.03 33.6,-352.01 z m 723.64,591.52 c -40,59.53 -80.63,122.54 -108.02,189.83 -18.26,44.66 -30.59,91.22 -33.15,139.98 -0.18,2.83 -0.27,5.66 -0.36,8.49 -3.29,67.58 -30.32,71.6 -41.46,6.85 0.18,-5.2 0.37,-10.31 0.82,-15.34 v -0.09 c 3.47,-48.39 15.71,-94.96 33.24,-139.89 13.51,-34.6 30.14,-68.21 48.3,-100.99 18.17,-32.69 37.81,-64.56 57.35,-95.6 8.58,-14.98 -1.37,-48.85 -11.87,-83.37 -5.75,-18.81 -11.6,-37.8 -14.8,-53.97 -2.55,-13.05 -31.22,-16.61 -33.78,-29.76 10.14,-6.94 46.48,-23.38 56.62,-30.22 7.66,33.32 22.64,75.88 34.15,113.95 11.95,39.72 20.17,74.69 12.96,90.13 z m 288.27,-365.61 c -0.73,-1.56 -1.46,-2.93 -2.19,-4.39 h 0.18 c 0.64,1.37 1.37,2.65 2.01,4.11 0.91,1.65 1.92,3.2 3.01,4.84 -1.18,-1.46 -2.19,-3.01 -3.01,-4.56 z m 140.25,-179.43 c -4.93,19.27 -12.51,32.23 -7.76,59.53 21.01,67.3 -10.32,76.16 -29.76,-1.46 0.73,-27.57 13.33,-51.77 22.82,-89.48 23.02,-82.73 37.26,-42.28 14.7,31.41 z m -1152.16,-46.48 c -146.01,-109.94 -154.51,-317.03 33.6,-352.01 z m 0,0 c -146.01,-109.94 -154.51,-317.03 33.6,-352.01 z m 0,0 c -146.01,-109.94 -154.51,-317.03 33.6,-352.01 z m 0,0 c -146.01,-109.94 -154.51,-317.03 33.6,-352.01 z m 0,0 c -146.01,-109.94 -154.51,-317.03 33.6,-352.01 z m 0,0 c -146.01,-109.94 -154.51,-317.03 33.6,-352.01 z m 0,0 c -146.01,-109.94 -154.51,-317.03 33.6,-352.01 z m 0,0 c -146.01,-109.94 -154.51,-317.03 33.6,-352.01 z m 0,0 c -146.01,-109.94 -154.51,-317.03 33.6,-352.01 z m 0,0 c -146.01,-109.94 -154.51,-317.03 33.6,-352.01 z m 0,0 c -146.01,-109.94 -154.51,-317.03 33.6,-352.01 z m 0,0 c -146.01,-109.94 -154.51,-317.03 33.6,-352.01 z m 0,0 c -146.01,-109.94 -154.51,-317.03 33.6,-352.01 z m 0,0 c -146.01,-109.94 -154.51,-317.03 33.6,-352.01 z m 0,0 c -146.01,-109.94 -154.51,-317.03 33.6,-352.01 z m 0,0 c -146.01,-109.94 -154.51,-317.03 33.6,-352.01 z m 0,0 c -146.01,-109.94 -154.51,-317.03 33.6,-352.01 z m 0,0 c -146.01,-109.94 -154.51,-317.03 33.6,-352.01 z m 0,0 c -146.01,-109.94 -154.51,-317.03 33.6,-352.01 z m 0,0 c -146.01,-109.94 -154.51,-317.03 33.6,-352.01 z m 0,0 c -146.01,-109.94 -154.51,-317.03 33.6,-352.01 z m 0,0 c -146.01,-109.94 -154.51,-317.03 33.6,-352.01 z m 0,0 c -146.01,-109.94 -154.51,-317.03 33.6,-352.01 z m 0,0 c -146.01,-109.94 -154.51,-317.03 33.6,-352.01 z m 0,0 c -146.01,-109.94 -154.51,-317.03 33.6,-352.01 z m 0,0 c -146.01,-109.94 -154.51,-317.03 33.6,-352.01 l -33.6,352.01" /><path
         id="path26"
         style="fill:#fff200;fill-opacity:1;fill-rule:nonzero;stroke:none"
         d="m 2692.17,1852.35 c 1.73,3.2 4.11,6.49 6.76,9.4 l 1.37,1.38 c 1.73,1.82 3.56,3.37 5.29,4.66 0.92,0.54 1.74,1.09 2.47,1.45 0.82,0.37 1.55,0.64 2.19,0.82 3.83,0.74 5.57,-2.64 2.01,-13.42 -0.82,-2.37 -1.83,-5.11 -3.2,-8.22 -0.09,0 -0.09,-0.09 -0.09,-0.18 -0.09,-0.09 -0.09,-0.27 -0.09,-0.36 -5.3,-13.52 -2.37,-32.69 -0.37,-42.46 7.58,-44.56 14.89,-94.42 23.02,-143.82 7.39,-45.11 15.43,-89.85 24.83,-129.57 1.65,-8.31 2.38,-16.62 2.38,-24.47 0,-13.79 -2.19,-25.84 -5.39,-32.6 -1.74,-3.56 -3.75,-5.66 -5.94,-5.66 -2.01,0 -4.01,1.74 -6.11,5.75 -2.47,4.75 -4.84,12.6 -6.94,24.38 -10.78,50.32 -20,106.2 -28.59,162.17 -8.03,52.32 -15.61,104.65 -23.56,152.58 -0.45,19.09 3.66,26.57 7.77,34.06 l 2.19,4.11" /><path
         id="path28"
         style="fill:#fff200;fill-opacity:1;fill-rule:nonzero;stroke:none"
         d="m 2309.12,2128.11 c -12.24,-29.95 -27.49,-62.91 -33.15,-92.5 -12.69,-6.84 -54.05,-25.93 -66.66,-32.68 2.1,13.23 32.97,38.71 34.98,51.86 3.56,22 11.68,48.57 18.08,73.41 7.57,29.68 12.87,56.89 4.93,71.41 -34.79,66.93 -69.12,136.23 -92.41,208.46 -14.7,45.38 -25.02,92.04 -28.4,139.89 v 0.09 c -0.64,9.13 -1,18.26 -1.09,27.49 10.32,86.92 34.42,79.62 37.43,-6.03 0.1,-7.12 0.28,-14.33 0.74,-21.46 3.19,-47.48 15.88,-94.32 33.78,-139.98 28.85,-73.87 71.13,-144.64 107.93,-210.28 3.19,-17.81 -5.2,-42.56 -16.16,-69.59 v -0.09" /><path
         id="path30"
         style="fill:#fff200;fill-opacity:1;fill-rule:nonzero;stroke:none"
         d="m 2241.73,2186.37 c -3.2,-19.99 -8.76,-39.17 -15.15,-58.08 v -0.09 c -14.8,-43.1 -34.25,-84.46 -41.46,-130.12 -10.87,0.83 -54.97,3.84 -65.84,4.66 1.55,12.24 36.25,22.19 37.8,34.52 3.84,31.23 6.12,60.9 8.77,90.85 0,0.09 0,0.09 0,0.18 1.64,19.18 3.47,38.44 5.94,58.54 -29.04,71.22 -56.07,145.36 -73.96,221.24 -10.78,46.11 -18.27,92.87 -20.64,139.89 v 0.09 c -1.92,36.99 -0.73,74.33 4.47,111.68 8.04,38.81 46.39,78.8 29.95,-57.98 -1,-17.9 -0.64,-35.8 0.82,-53.7 2.1,-23.56 6.12,-46.93 11.6,-70.3 5.57,-23.38 12.6,-46.58 20.73,-69.68 27.03,-76.79 65.37,-151.57 96.97,-221.7" /><path
         id="path32"
         style="fill:#fff200;fill-opacity:1;fill-rule:nonzero;stroke:none"
         d="m 2583.42,2128.2 h -0.37 c -15.43,-47.75 -34.79,-99.25 -50.49,-139.98 h -0.46 c -16.16,-42.18 -28.4,-72.41 -28.49,-73.96 -10.14,7.03 -49.58,34.97 -59.72,42.01 3.93,14.96 37.07,9.21 41.09,24.28 0.74,2.83 1.85,5.74 2.76,8.67 l 0.08,0.19 c 12.14,41.91 32.77,93.23 49.21,139.8 h 0.37 c 18.99,53.68 32.23,100.99 20.08,120.89 -41.91,49.13 -83.09,100.72 -113.49,157.97 -10.51,19.72 -19.73,40.09 -27.21,61.18 -28.13,100.17 39.99,-6.21 77.7,-61.18 h 0.09 c 9.68,-14.06 17.35,-24.75 20.91,-27.76 26.76,-41.72 58.08,-80.17 91.04,-117.06 11.96,-12.96 -2.01,-70.4 -23.1,-135.05" /><path
         id="path34"
         style="fill:#fff200;fill-opacity:1;fill-rule:nonzero;stroke:none"
         d="m 2150.14,2181.71 c -2.28,-18.35 -6.75,-36.07 -12.05,-53.6 -12.51,-41 -29.77,-80.72 -35.06,-123.82 -10.87,0.82 -53.88,4.3 -64.74,5.12 1.28,14.06 34.6,25.47 35.79,39.44 2.38,26.48 4.66,52.87 6.94,79.35 1.74,19.55 3.47,38.99 5.12,58.53 -21.83,72.96 -42.28,146.74 -56.34,221.34 -8.59,46.02 -14.8,92.41 -17.26,139.07 -0.09,0.27 -0.09,0.55 -0.09,0.82 -2.38,45.57 -1.28,91.49 4.56,137.7 8.86,68.12 39.81,49.3 34.79,-9.86 -6.67,-42.46 -7.21,-85.19 -3.29,-127.75 h 0.1 c 4.47,-46.84 14.24,-93.59 26.84,-139.98 21,-77.16 49.77,-153.13 74.69,-226.36" /><path
         id="path36"
         style="fill:#fff200;fill-opacity:1;fill-rule:nonzero;stroke:none"
         d="m 2051.35,2128.11 c -11.14,-38.26 -26.76,-75.97 -30.23,-115.51 -10.77,5.03 -55.52,25.39 -66.2,30.41 0.73,13.42 35.43,11.42 36.16,24.84 1,20.54 1.83,40.45 2.56,60.35 0.64,17.9 1.37,35.8 2.28,54.24 -14.24,74.6 -27.21,149.94 -35.98,225.63 -5.47,46.57 -9.31,93.23 -10.95,139.98 -1.83,52.05 -0.83,104.19 3.74,156.33 11.32,45.29 38.72,46.2 34.43,-9.95 -6.21,-48.77 -5.94,-97.62 -1.56,-146.38 4.2,-46.75 12.15,-93.5 22.01,-139.98 16.16,-76.34 37.25,-152.12 54.51,-226.63 -1.64,-18.08 -5.75,-35.71 -10.77,-53.24 v -0.09" /><path
         id="path38"
         style="fill:#fff200;fill-opacity:1;fill-rule:nonzero;stroke:none"
         d="m 1964.96,2181.07 c -0.91,-18.07 -4.74,-35.52 -9.03,-52.87 v -0.09 c -6.49,-25.66 -14.07,-51.13 -15.53,-77.89 -11.32,5.21 -49.4,10.96 -60.72,16.16 0.18,12.7 27.21,24.93 27.39,37.53 0.18,8.13 0.37,16.16 0.46,24.29 0.36,19.09 0.64,38.18 1,57.26 -6.2,74.14 -11.95,148.38 -16.07,222.61 -2.64,46.57 -4.56,93.23 -5.57,139.89 v 0.09 c -0.72,38.17 -0.91,76.43 -0.27,114.78 5.94,53.78 33.42,76.8 34.61,24.29 -3.01,-46.2 -2.74,-92.59 -0.19,-139.07 2.56,-46.66 7.4,-93.32 13.15,-139.98 9.41,-76.06 21.46,-152.03 30.77,-227" /><path
         id="path40"
         style="fill:#fff200;fill-opacity:1;fill-rule:nonzero;stroke:none"
         d="m 1870.8,2193.91 c -0.37,-20.82 -3.56,-43.28 -6.76,-65.83 -3.47,-23.74 -7.03,-47.48 -7.39,-69.49 -11.51,-4.11 -49.67,-15.34 -61.18,-19.45 -0.18,12.69 26.3,32.41 26.02,45.02 -0.27,14.61 -0.46,29.31 -0.73,43.92 -0.36,20.27 -0.73,40.45 -1.09,60.63 1.91,73.14 3.65,146.19 4.65,219.33 0.64,46.66 1.01,93.32 0.92,139.98 0,23.65 -0.1,47.3 -0.37,70.94 7.76,72.15 27.03,85.02 31.96,22.74 -0.46,-31.5 -0.18,-62.64 0.46,-93.68 1,-46.93 3.1,-93.41 5.29,-139.98 3.29,-70.77 7.13,-141.72 8.22,-214.13" /><path
         id="path42"
         style="fill:#fff200;fill-opacity:1;fill-rule:nonzero;stroke:none"
         d="m 1795.29,2618.51 c -0.1,-23.37 -0.19,-46.93 -0.28,-70.58 -0.36,-46.48 -1.1,-93.14 -2.37,-139.89 -2.19,-74.24 -6.12,-148.38 -12.97,-221.25 l -1.92,-58.71 c -2.28,-32.78 -5.48,-65.11 -4.92,-99.35 -11.05,-4.02 -51.69,-18.63 -62.83,-22.64 -0.73,14.24 28.04,39.17 27.3,53.41 -1.18,22.92 -2.37,45.75 -3.65,68.58 l -3.47,66.56 c 9.77,70.95 18.81,142.08 25.02,213.4 4.02,46.57 6.76,93.23 7.76,139.98 0.55,24.47 0.64,48.94 0.09,73.5 1.37,91.95 30.14,78.44 32.24,-3.01" /><path
         id="path44"
         style="fill:#fff200;fill-opacity:1;fill-rule:nonzero;stroke:none"
         d="m 1732.83,2624.36 c 0.36,-25.48 -0.19,-50.96 -1.46,-76.34 -2.38,-46.84 -7.12,-93.5 -13.61,-139.98 -9.68,-70.04 -23.1,-139.62 -37.53,-208.83 1.28,-23.74 2.47,-47.39 3.75,-71.13 2.28,-42.92 4.47,-85.84 6.76,-128.75 -4.84,-1.74 -15.99,-6.3 -27.68,-11.14 -14.15,-5.94 -29.12,-12.24 -35.06,-14.25 -0.27,3.75 1.92,8.77 5.3,14.25 8.04,13.33 22.46,29.58 21.64,38.9 -2.83,32.32 -9.95,67.66 -14.24,100.99 -3.57,27.3 -5.21,53.23 -1.19,75.33 17.07,67.66 33.05,135.87 44.19,204.63 7.58,46.39 12.97,93.05 15.16,139.98 1.28,26.39 1.46,52.87 0.46,79.35 -1.65,78.07 32.68,75.79 33.51,-3.01" /><path
         id="path46"
         style="fill:#fff200;fill-opacity:1;fill-rule:nonzero;stroke:none"
         d="m 1523.18,2548.02 c -7.49,-47.3 -22.19,-95.52 -39.36,-139.98 -27.85,-71.77 -62.18,-133.86 -83.28,-167.38 -4.93,-11.41 1.46,-56.43 11.69,-112.58 8.04,-43.47 18.36,-93.69 27.49,-139.89 6.94,-34.89 13.24,-67.48 17.26,-93.32 -10.5,-2.56 -20.91,-5.21 -31.42,-7.86 -5.47,28.22 -13.51,63.65 -22.28,101.18 -10.77,46.38 -22.55,96.06 -32.05,139.89 -12.59,58.71 -21,106.92 -16.8,122.35 31.41,50.41 62.28,102.82 86.2,157.61 19.63,44.83 34.61,91.4 41.37,139.98 1.64,11.87 2.83,23.93 3.47,35.98 -3.75,102.81 30.13,162.53 42.18,48.94 1.92,-27.3 0.09,-55.98 -4.47,-84.92" /><path
         id="path48"
         style="fill:#fff200;fill-opacity:1;fill-rule:nonzero;stroke:none"
         d="m 1403.47,2437.26 c -3.65,-9.86 -7.86,-19.63 -12.42,-29.22 -30.95,-64.2 -80.08,-119.62 -89.58,-145.19 -3.74,-13.42 6.67,-68.03 21.28,-134.77 9.68,-44.1 21.18,-93.51 31.77,-139.89 9.23,-40.46 17.72,-78.44 23.56,-108.76 -10.5,-2.64 -20.91,-5.29 -31.41,-7.85 -8.49,36.71 -17.71,76.15 -27.21,116.61 -10.68,46.02 -21.91,93.41 -32.78,139.89 -11.96,51.22 -23.74,101.35 -34.33,147.38 -8.77,20.36 46.56,62.72 67.38,95.87 14.25,16.44 23.56,26.57 32.24,36.71 9.59,11.32 18.26,22.64 31.69,42.55 23.37,38.26 38.16,33.79 19.81,-13.33" /><path
         id="path50"
         style="fill:#fff200;fill-opacity:1;fill-rule:nonzero;stroke:none"
         d="m 1080.04,1755.62 -27.21,-17.99 -15.52,61.36 c -12.51,44.93 12.42,32.69 21.64,8.04 l 21.09,-51.41" /><path
         id="path52"
         style="fill:#fff200;fill-opacity:1;fill-rule:nonzero;stroke:none"
         d="m 1146.24,1801.18 -30.4,-17.98 -21.1,65.01 -20.63,63.64 c -18.17,57.17 7.58,86.47 25.84,38.17 l 31.68,-101.81 14.61,-47.03" /><path
         id="path54"
         style="fill:#fff200;fill-opacity:1;fill-rule:nonzero;stroke:none"
         d="m 1219.57,1841.54 -31.14,-12.23 -5.75,18.9 -42.56,139.98 -4.47,14.79 c -15.07,47.57 5.85,100.9 27.85,33.97 l 13.97,-48.76 40.18,-139.98 1.92,-6.67" /><path
         id="path56"
         style="fill:#fff200;fill-opacity:1;fill-rule:nonzero;stroke:none"
         d="m 1298.64,1861.45 -31.59,-7.86 -36.07,134.6 -37.53,139.89 -12.05,45.1 c -6.76,49.22 17.53,140.9 33.51,43.65 l 20.91,-88.75 32.96,-139.89 29.86,-126.74" /><path
         id="path58"
         style="fill:#fff200;fill-opacity:1;fill-rule:nonzero;stroke:none"
         d="m 1594.95,2547.93 c -5.11,-47.48 -15.8,-94.14 -29.77,-139.89 h -0.09 c -19.09,-62.36 -44.47,-123.27 -70.86,-182.72 3.65,-29.58 7.4,-62.73 11.23,-97.24 5.11,-46.21 10.32,-94.7 15.34,-139.89 2.84,-24.93 5.57,-48.85 8.31,-70.77 l -31.68,-7.85 c -3.56,22.83 -9.04,49.86 -15.07,78.62 -9.68,45.83 -20.73,95.87 -27.85,139.89 -7.21,44.74 -10.41,83.18 -4.02,104.82 27.85,56.71 54.88,115.06 75.15,175.14 15.43,45.65 27.03,92.23 32.15,139.98 3.28,30.68 4.01,61.82 1.27,93.41 -0.09,71.5 28.58,61.91 38.63,-3.2 1.55,-30.5 0.55,-60.53 -2.74,-90.3" /><path
         id="path60"
         style="fill:#fff200;fill-opacity:1;fill-rule:nonzero;stroke:none"
         d="m 1666.08,2548.02 c -3.56,-47.12 -11.14,-93.77 -21.18,-139.98 -14.61,-67.12 -34.61,-133.22 -55.7,-198.51 2.37,-27.12 4.74,-54.24 7.12,-81.45 4.01,-46.66 8.13,-93.23 12.23,-139.89 0.55,-5.85 1.01,-11.69 1.56,-17.63 -10.5,-3.74 -47.67,-32.68 -58.17,-36.43 -1.28,9.95 17.8,39.17 21.73,54.06 0.64,2.19 0.83,4.01 0.64,5.56 -4.84,40 -15.52,90.41 -22.64,134.33 -5.94,37.25 -9.41,69.76 -4.57,87.2 23.38,63.19 45.56,127.38 61.55,192.76 11.32,46.11 19.54,92.68 23,139.98 2.11,28.21 2.56,56.61 0.83,85.28 3.01,77.89 35.7,68.3 35.61,-3.1 0.82,-27.57 0.09,-54.97 -2.01,-82.18" /><path
         id="path62"
         style="fill:#fff200;fill-opacity:1;fill-rule:nonzero;stroke:none"
         d="m 1525.74,1897.05 c -2.74,-7.66 -13.34,-30.85 -21.28,-48.84 -3.84,-8.86 -7.12,-16.44 -8.5,-20.18 -13.51,-3.38 -16.52,14.15 -25.29,20.18 -2.55,1.73 -5.56,2.47 -9.5,1.55 -2,-0.55 -4.1,-1.01 -6.11,-1.55 h -0.18 c -103.37,-26.21 -199.06,-59.91 -246.36,-81.73 -50.86,-22.73 -128.11,-67.29 -193.13,-104.91 h -0.09 c -1.64,-1.01 -3.19,-1.92 -4.75,-2.83 -25.929,-14.07 -69.116,-17.26 -39.624,2.83 2.191,1.46 4.84,3.1 7.851,4.92 6.391,3.66 152.583,106.3 215.863,141.9 23.01,11.97 71.04,25.75 127.11,39.82 66.29,16.71 143.72,33.78 203.99,48.84" /><path
         id="path64"
         style="fill:#fff200;fill-opacity:1;fill-rule:nonzero;stroke:none"
         d="m 1492.86,1806.48 c -3.83,-10.6 -23.01,-60.36 -26.84,-70.86 -15.34,-3.84 -15.34,31.41 -30.78,27.58 -71.49,-17.81 -163.45,-49.77 -202.8,-69.03 -12.32,-6.94 -38.62,-18.36 -71.77,-32.6 -43.74,-18.72 -99.35,-42.37 -149.84,-66.75 -48.853,-21.65 -35.521,4.93 10.59,28.03 22.1,11.6 44.19,25.02 66.02,38.72 43.55,27.39 86.29,56.06 126.83,75.42 60.18,26.85 185.73,46.3 278.59,69.49" /><path
         id="path66"
         style="fill:#fff200;fill-opacity:1;fill-rule:nonzero;stroke:none"
         d="m 2756.16,1661.57 c -1.56,4.74 -3.2,10.32 -4.84,16.98 -6.94,29.95 -16.17,49.13 -16.62,71.04 14.61,61.82 37.8,54.88 22.01,1.28 -3.57,-21.73 2,-32.05 5.66,-47.39 4.65,-16.62 7.12,-31.14 7.94,-41.91 1.64,-23.2 -4.66,-28.77 -14.15,0" /><path
         id="path68"
         style="fill:#fff200;fill-opacity:1;fill-rule:nonzero;stroke:none"
         d="m 2685.87,1426.56 c -1.46,15.62 -2.92,31.78 -4.57,48.67 -5.48,58.44 -11.96,123 -22.27,186.37 h -0.1 c -10.5,64.1 -25.11,126.93 -46.66,180.98 -0.27,1.83 -0.36,3.74 -0.46,5.66 -0.72,26.66 15.62,60.54 23.84,82.09 8.31,24.47 16.34,43.65 23.46,57.89 21.19,41.73 34.79,39.73 25.76,0 -3.02,-13.15 -8.5,-30.4 -16.99,-51.59 -7.31,-25.11 -15.61,-55.97 -14.79,-88.39 0.18,-5.75 0.64,-11.6 1.37,-17.44 9.68,-55.61 19.26,-112.13 29.03,-168.56 h 0.1 c 10.86,-62.73 21.73,-125.55 32.96,-187.01 h 0.09 c 0,-0.27 0,-0.45 0.09,-0.63 11.87,-63.47 -15.7,-122.18 -30.86,-48.04" /><path
         id="path70"
         style="fill:#fff200;fill-opacity:1;fill-rule:nonzero;stroke:none"
         d="m 1344.21,1334.95 c -33.42,-8.31 -68.85,-22.56 -100.35,-25.02 -57.17,-8.41 -137.98,0.64 -206.83,-3.66 -56.518,1.83 -55.694,18.81 -5.84,20.82 71.41,6.76 142.72,3.65 214.86,12.06 30.4,7.57 60.72,15.15 91.13,22.73 37.62,9.68 54.69,-14.98 7.03,-26.93" /><path
         id="path72"
         style="fill:#fff200;fill-opacity:1;fill-rule:nonzero;stroke:none"
         d="m 1365.94,1234.6 c -43.92,-10.96 -94.15,-39.63 -131.67,-32.79 -53.88,7.58 -108.02,13.97 -162.35,17.17 -68.3,9.95 -65.66,28.58 -22.38,28.4 63.37,-0.09 126.56,-4.29 189.57,-10.05 40.9,-9.04 78.89,19.73 118.33,29.59 l 8.5,-32.32" /><path
         id="path74"
         style="fill:#fff200;fill-opacity:1;fill-rule:nonzero;stroke:none"
         d="m 1385.3,1140.36 c -47.21,-11.78 -96.16,-34.6 -141.54,-35.25 -16.52,1.47 -36.06,5.3 -43.37,9.68 -58.89,14.98 -39.35,29.32 -18.99,25.75 14.34,-2.83 28.58,-6.3 43.01,-9.04 63.27,-4.93 102.08,25.39 153.21,38.17 2.56,-9.77 5.12,-19.54 7.68,-29.31" /><path
         id="path76"
         style="fill:#fff200;fill-opacity:1;fill-rule:nonzero;stroke:none"
         d="m 1403.56,1037.73 -66.66,-16.62 c -54.15,-12.7 -72.68,10.41 -34.15,20.27 l 93.69,23.37 7.12,-27.02" /><path
         id="path78"
         style="fill:#fff200;fill-opacity:1;fill-rule:nonzero;stroke:none"
         d="m 2486.33,697.68 c -54.78,-90.129 -171.66,-129.211 -247,-158.789 -193.49,-73.961 -420.67,6.57 -525.95,118.98 -72.87,79.25 -96.7,169.02 -178.7,248.82 -38.16,37.079 -91.4,-36.793 -183.53,50.129 -27.3,44.93 57.16,31.961 56.7,55.06 48.31,-64.278 72.5,-89.302 136.42,-33.232 130.94,-250.378 178.97,-285.437 301.88,-367.617 50.58,-32.871 238.96,-88.031 246.63,-52.781 6.85,31.859 19.18,58.711 41.54,58.352 22.38,-0.364 40.09,-27.122 39.55,-59.813 -1.92,-28.668 57.06,4.383 87.01,15.332 61.18,21.277 150.49,86.481 202.35,135.609 35.98,34.051 36.34,11.782 23.1,-10.05" /><path
         id="path80"
         style="fill:#fff200;fill-opacity:1;fill-rule:nonzero;stroke:none"
         d="m 2265.81,856.289 c 0,0 -137.24,-71.23 -240.78,0.82 154.86,-43.461 190.93,2.469 201.89,10.5 1.82,1.563 4.92,3.2 8.58,4.75 l -34.15,-1.828 -92.77,-1.179 -55.98,6.296 -51.13,4.661 53.23,14.882 55.88,-6.48 c 0,0 173.59,12.508 191.39,-3.109 8.95,-7.852 -36.16,-29.313 -36.16,-29.313" /><path
         id="path82"
         style="fill:#fff200;fill-opacity:1;fill-rule:nonzero;stroke:none"
         d="m 2344.98,948.238 c -8.13,-16.707 7.03,-11.777 -49.31,-32.867 -21.09,-7.941 -30.04,-7.402 -46.02,-5.672 l -2.74,102.911 27.31,-3.19 v -82.818 l 10.77,-4.391 -2.1,86.199 21.82,-2.46 v -68.848 l 11.32,8.398 -1.55,55.52 17.44,-3.918 c 18.63,-5.852 23.83,-26.403 13.06,-48.864" /><path
         id="path84"
         style="fill:#fff200;fill-opacity:1;fill-rule:nonzero;stroke:none"
         d="M 2238.97,1013.53 V 910.711 c -8.4,0.461 -17.44,0.371 -26.67,-0.18 l -3.46,106.469 30.13,-3.47" /><path
         id="path86"
         style="fill:#fff200;fill-opacity:1;fill-rule:nonzero;stroke:none"
         d="M 2199.43,1018.09 V 909.531 c -9.31,-0.922 -18.54,-2.293 -27.39,-4.301 l -12.06,1.282 -4.11,116.608 43.56,-5.03" /><path
         id="path88"
         style="fill:#fff200;fill-opacity:1;fill-rule:nonzero;stroke:none"
         d="m 2148.02,912.09 -34.97,-0.649 -4.47,110.759 37.89,-0.91 1.55,-109.2" /><path
         id="path90"
         style="fill:#fff200;fill-opacity:1;fill-rule:nonzero;stroke:none"
         d="m 2095.97,907.52 -30.49,11.769 -3.48,100.631 30.78,3.84 3.19,-116.24" /><path
         id="path92"
         style="fill:#fff200;fill-opacity:1;fill-rule:nonzero;stroke:none"
         d="m 2045.84,1021.11 -1.64,-95.329 -27.12,-1.562 -3.56,100.171 32.32,-3.28" /><path
         id="path94"
         style="fill:#fff200;fill-opacity:1;fill-rule:nonzero;stroke:none"
         d="m 1993.98,923.219 -12.33,-35.981 -14.52,-7.297 -4.84,138.969 7.86,10.05 22.09,-6.94 1.74,-98.801" /><path
         id="path96"
         style="fill:#fff200;fill-opacity:1;fill-rule:nonzero;stroke:none"
         d="m 1946.04,868.352 c -6.57,1.179 -20.36,-0.551 -25.29,0.359 l -4.66,133.769 23.65,1.37 6.3,-135.498" /><path
         id="path98"
         style="fill:#fff200;fill-opacity:1;fill-rule:nonzero;stroke:none"
         d="m 1908.42,1004.3 c -14.61,-43.011 -12.97,-145.46 -12.97,-145.46 -1.91,-43.449 -23.83,-89.289 -46.11,-106.192 32.69,59.364 28.95,118.801 31.78,158.793 2.37,31.868 4.84,67.75 9.86,90.309 9.59,32.33 124.55,178.78 124.55,178.78 -9.04,-60.26 -87.75,-134.13 -107.11,-176.23" /><path
         id="path100"
         style="fill:#fff200;fill-opacity:1;fill-rule:nonzero;stroke:none"
         d="m 2110.22,1096.63 c -13.33,-16.17 -42,-26.21 -85.83,-30.14 1.27,20.36 12.14,33.88 32.6,40.54 17.44,2.56 35.15,-0.91 53.23,-10.4" /><path
         id="path102"
         style="fill:#fff200;fill-opacity:1;fill-rule:nonzero;stroke:none"
         d="m 2514.57,1244.77 c -172.12,-35.35 -253.66,91.12 -295.21,234.21 -38.35,132.04 1.82,199.33 123.18,191.21 l 155.41,-13.61 c 192.21,-44.65 126.37,-384.33 16.62,-411.81 z m -793.68,6.11 c -241.34,32.05 -214.58,305.35 -39.45,405.88 148.66,68.85 390.63,44.2 383.06,-42.46 -37.35,-295.11 -118.16,-394.47 -343.61,-363.42 z m 945.8,224.17 c -9.4,67.21 -19.45,129.39 -30.22,186.55 -13.15,69.76 -27.3,131.95 -42.55,186.64 -4.2,14.98 -8.4,29.31 -12.69,43.1 0,0 14.42,42.73 32.78,96.79 7.57,22.46 15.89,46.84 24.01,70.95 8.13,24.02 16.16,47.76 23.38,69.03 5.2,15.43 9.95,29.59 13.97,41.46 4.02,11.87 7.3,21.55 9.5,28.12 13.79,36.43 3.56,47.76 -1.19,58.17 -25.21,53.51 -110.4,102.09 -47.67,25.66 -1,-4.2 27.94,-31.14 14.16,-57.16 -6.49,-21.28 -18.26,-56.62 -31.6,-96.25 -15.52,-46.29 -33.33,-98.16 -47.48,-139.89 -7.67,-22.46 -14.24,-41.91 -18.9,-55.79 -6.39,-18.99 -34.06,-19.72 -34.06,-19.72 l 29.95,-43.37 c 2.83,-7.04 5.57,-14.07 8.22,-21.1 11.69,-31.23 21.28,-62.54 29.22,-93.78 8.03,-31.22 14.42,-62.36 19.54,-92.86 5.48,-32.41 9.59,-64.29 12.69,-95.14 -14.97,62.09 -43.83,102.08 -99.16,121.71 -270.93,73.14 -705.75,57.8 -852.76,-9.49 -22.46,-8.68 -50.77,-28.13 -72.32,-54.33 -62.64,10.59 -102.63,10.13 -139.25,7.21 0.09,0.09 0.09,0.27 0.09,0.36 -59.44,-3.92 -151.76,-23.83 -212.39,-47.84 -89.12,-34.89 -178.51,-68.76 -269.37,-98.8 -7.117,-3.01 -14.43,-6.58 -20.727,-10.23 h -0.09 c -21.003,-11.96 -30.773,-23.56 13.418,-12.87 14.797,4.47 29.774,8.67 44.839,12.87 80.53,22.19 164,41.09 242.16,68.03 44.83,17.26 100.17,37.44 153.77,50.77 21.18,7.03 26.84,-7.95 27.57,-20.46 -1.92,-8.31 -3.65,-16.7 -5.48,-25.2 -59.71,-14.88 -119.61,-29.77 -179.33,-44.74 -35.43,-9.5 -70.95,-18.99 -106.47,-28.4 v -0.09 c -44.93,-11.96 -90.04,-23.83 -135.05,-35.61 -44.47,-14.43 -40.177,-29.95 4.11,-20.73 79.53,18.35 159.06,36.25 238.69,53.97 3.28,0.82 6.57,1.55 9.77,2.37 h 0.09 c 45.74,11.41 91.4,22.83 137.15,34.24 6.94,1.74 14.7,-3.65 21.64,-12.14 -1.92,-11.69 -3.56,-23.38 -4.84,-34.88 -54.42,-13.52 -108.75,-27.12 -163.17,-40.64 -77.44,-11.32 -154.78,-23.38 -231.76,-37.25 -46.837,-9.23 -38.798,-22.65 4.76,-19.72 75.23,11.32 150.84,20.18 226.54,28.03 40.09,4.74 90.03,22.37 137.69,34.33 16.44,6.76 20.55,-5.57 21.83,-17.44 -0.55,-18.72 0.09,-36.53 2.19,-52.87 15.98,-12.97 114.42,-3.65 141.72,-29.31 l 0.09,-0.09 c 8.58,-17.9 20.63,-35.07 36.98,-51.23 l 44.84,-82.09 c 24.01,-57.43 296.3,-29.49 350.36,44.93 0,0 60.81,92.41 77.34,130.48 30.77,65.47 62.27,81.18 94.5,47.12 5.75,-15.16 13.24,-34.15 18.08,-52.32 7.22,-43.65 18.91,-121.81 37.99,-143.73 44.2,-37.06 37.25,-121.9 -56.61,-142.99 -4.39,-1.01 -5.48,-3.93 -4.48,-7.94 0,0 -0.27,-4.39 20.91,0.91 92.5,23.1 105.65,114.96 51.59,161.98 -15.52,13.52 -27.94,73.97 -40.91,141.72 61.73,-140.9 158.98,-223.44 307.36,-234.86 81.91,-4.83 128.84,171.22 134.69,323.43 7.39,-110.57 10.13,-197.14 39.26,-232.84 0,0 26.66,24.01 20.36,90.3 -6.03,54.33 -12.51,106.02 -19.27,154.96" /><path
         id="path104"
         style="fill:#fff200;fill-opacity:1;fill-rule:nonzero;stroke:none"
         d="m 2521.78,1263.76 -11.68,376.75 c 132.67,-38.26 114.22,-300.24 11.68,-376.75" /><path
         id="path106"
         style="fill:#fff200;fill-opacity:1;fill-rule:nonzero;stroke:none"
         d="m 2494.11,1254.62 c -121.26,-15.24 -206.82,58.72 -256.03,228.19 -36.71,126.38 0.45,180.71 108.75,173.4 l 131.12,-11.41 16.16,-390.18" /><path
         id="path108"
         style="fill:#fff200;fill-opacity:1;fill-rule:nonzero;stroke:none"
         d="M 198.449,457.719 H 67.3008 c -19.5625,0 -35.668,6.75 -48.3203,20.269 -12.66019,13.524 -18.98440625,30.051 -18.98440625,49.614 v 66.019 c 0,19.551 6.32421625,36.09 18.98440625,49.609 12.6523,13.5 28.7578,20.27 48.3203,20.27 H 198.449 V 635.461 H 66.9648 C 55.7188,635.461 46.4141,630.969 39.0664,622 31.7109,613 28.0352,602.738 28.0352,591.16 V 570.75 H 197.152 V 542.711 H 28.0352 v -13.27 c 0,-11.421 3.6757,-21.562 11.0312,-30.41 7.3477,-8.851 16.6524,-13.269 27.8984,-13.269 H 198.449 v -28.043" /><path
         id="path110"
         style="fill:#fff200;fill-opacity:1;fill-rule:nonzero;stroke:none"
         d="m 263.188,457.719 h -28.047 v 200.172 h 28.047 z m 0,232.09 H 235.141 V 717 h 28.047 v -27.191" /><path
         id="path112"
         style="fill:#fff200;fill-opacity:1;fill-rule:nonzero;stroke:none"
         d="m 532.691,457.719 h -28.046 v 134.062 c 0,11.239 -3.954,20.828 -11.856,28.758 -7.914,7.93 -17.469,11.91 -28.687,11.91 h -92.75 c -11.223,0 -20.789,-3.98 -28.692,-11.91 -7.91,-7.93 -11.867,-17.519 -11.867,-28.758 V 457.719 H 302.758 V 591.73 c 0,19.602 6.539,35.969 19.629,49.079 13.082,13.101 29.398,19.66 48.965,19.66 h 92.75 c 19.554,0 35.871,-7.059 48.961,-21.18 13.082,-14.109 19.628,-30.98 19.628,-50.578 V 457.719" /><path
         id="path114"
         style="fill:#fff200;fill-opacity:1;fill-rule:nonzero;stroke:none"
         d="m 728.855,540.121 c -4.027,5.75 -10.214,8.641 -18.55,8.641 H 611.52 c -15.254,0 -27.61,5.617 -37.11,16.879 -9.484,11.25 -14.23,24.668 -14.23,40.257 0,15.59 4.746,29.082 14.23,40.5 9.5,11.403 21.856,17.102 37.11,17.102 H 756.902 V 635.461 H 617.984 c -18.117,0 -27.171,-9.492 -27.171,-28.481 0,-8.339 2.003,-15.371 6.031,-21.128 4.027,-5.762 10.074,-8.633 18.121,-8.633 h 99.226 c 15.243,0 27.614,-5.61 37.102,-16.828 9.492,-11.2 14.238,-24.582 14.238,-40.121 0,-16.969 -4.316,-31.2 -12.945,-42.719 -9.207,-12.653 -22,-18.961 -38.395,-18.961 H 568.813 v 27.601 h 138.906 c 18.113,0 27.179,10.93 27.179,32.778 0,8.351 -2.015,15.39 -6.043,21.152" /><path
         id="path116"
         style="fill:#fff200;fill-opacity:1;fill-rule:nonzero;stroke:none"
         d="M 891.879,457.719 H 865.57 c -19.566,0 -35.672,6.75 -48.32,20.269 -12.656,13.524 -18.98,30.051 -18.98,49.614 v 205.777 h 28.039 V 660.91 h 64.277 v -28.031 h -64.277 v -103.25 c 0,-11.469 3.613,-21.649 10.847,-30.527 7.246,-8.903 16.653,-13.34 28.235,-13.34 h 26.488 v -28.043" /><path
         id="path118"
         style="fill:#fff200;fill-opacity:1;fill-rule:nonzero;stroke:none"
         d="M 1113.44,457.719 H 982.289 c -19.566,0 -35.672,6.75 -48.32,20.269 -12.66,13.524 -18.981,30.051 -18.981,49.614 v 66.019 c 0,19.551 6.321,36.09 18.981,49.609 12.648,13.5 28.754,20.27 48.32,20.27 H 1113.44 V 635.461 H 981.957 c -11.25,0 -20.559,-4.492 -27.902,-13.461 -7.36,-9 -11.035,-19.262 -11.035,-30.84 v -20.41 h 169.12 V 542.711 H 943.02 v -13.27 c 0,-11.421 3.675,-21.562 11.035,-30.41 7.343,-8.851 16.652,-13.269 27.902,-13.269 h 131.483 v -28.043" /><path
         id="path120"
         style="fill:#fff200;fill-opacity:1;fill-rule:nonzero;stroke:none"
         d="m 1178.17,457.719 h -28.04 v 200.172 h 28.04 z m 0,232.09 h -28.04 V 717 h 28.04 v -27.191" /><path
         id="path122"
         style="fill:#fff200;fill-opacity:1;fill-rule:nonzero;stroke:none"
         d="m 1447.67,457.719 h -28.05 v 134.062 c 0,11.239 -3.96,20.828 -11.87,28.758 -7.91,7.93 -17.44,11.91 -28.67,11.91 h -92.74 c -11.22,0 -20.79,-3.98 -28.7,-11.91 -7.91,-7.93 -11.86,-17.519 -11.86,-28.758 V 457.719 h -28.04 V 591.73 c 0,19.602 6.54,35.969 19.63,49.079 13.08,13.101 29.4,19.66 48.97,19.66 h 92.74 c 19.57,0 35.86,-7.059 48.95,-21.18 13.1,-14.109 19.64,-30.98 19.64,-50.578 V 457.719" /><path
         id="path124"
         style="fill:#fff200;fill-opacity:1;fill-rule:nonzero;stroke:none"
         d="M 666.105,100.961 H 638.07 v 134.078 c 0,11.242 -3.957,20.82 -11.867,28.75 -7.914,7.922 -17.469,11.902 -28.687,11.902 h -67.727 v -174.73 h -28.043 v 174.73 h -63.418 c -11.223,0 -20.781,-3.98 -28.691,-11.902 -7.91,-7.93 -11.86,-17.508 -11.86,-28.75 V 100.961 h -28.043 v 134.027 c 0,19.614 6.532,35.942 19.629,49.082 13.082,13.102 29.399,19.668 48.965,19.668 h 159.188 c 19.55,0 35.871,-7.058 48.961,-21.207 13.082,-14.109 19.628,-30.961 19.628,-50.562 V 100.961" /><path
         id="path126"
         style="fill:#fff200;fill-opacity:1;fill-rule:nonzero;stroke:none"
         d="m 900.801,172.75 v 60.48 c 0,11.731 -3.617,22.032 -10.848,30.899 -7.223,8.851 -16.625,13.281 -28.18,13.281 h -95.808 c -11.574,0 -20.961,-4.43 -28.188,-13.281 -7.23,-8.867 -10.836,-19.168 -10.836,-30.899 v -60.48 c 0,-11.441 3.606,-21.57 10.836,-30.441 7.227,-8.868 16.614,-13.289 28.188,-13.289 h 95.808 c 11.555,0 20.957,4.421 28.18,13.289 7.231,8.871 10.848,19 10.848,30.441 z m 28.031,-2.051 c 0,-19.219 -6.113,-35.66 -18.332,-49.289 -12.23,-13.629 -27.973,-20.449 -47.238,-20.449 h -97.063 c -19.566,0 -35.668,6.75 -48.32,20.238 -12.66,13.481 -18.981,29.992 -18.981,49.5 v 67.172 c 0,19.789 6.254,36.008 18.766,48.641 12.516,12.629 28.691,18.949 48.535,18.949 h 95.344 c 19.543,0 35.648,-6.402 48.309,-19.172 12.652,-12.758 18.98,-28.91 18.98,-48.418 v -67.172" /><path
         id="path128"
         style="fill:#fff200;fill-opacity:1;fill-rule:nonzero;stroke:none"
         d="m 1064.23,100.961 h -26.31 c -19.57,0 -35.67,6.769 -48.322,20.289 -12.66,13.5 -18.985,30.039 -18.985,49.609 v 205.782 h 28.035 v -72.469 h 64.282 V 276.121 H 998.648 V 172.879 c 0,-11.457 3.612,-21.649 10.852,-30.539 7.25,-8.879 16.66,-13.32 28.24,-13.32 h 26.49 v -28.059" /><path
         id="path130"
         style="fill:#fff200;fill-opacity:1;fill-rule:nonzero;stroke:none"
         d="m 1288.87,172.75 v 60.48 c 0,11.731 -3.61,22.032 -10.84,30.899 -7.22,8.851 -16.63,13.281 -28.18,13.281 h -95.81 c -11.57,0 -20.96,-4.43 -28.19,-13.281 -7.23,-8.867 -10.83,-19.168 -10.83,-30.899 v -60.48 c 0,-11.441 3.6,-21.57 10.83,-30.441 7.23,-8.868 16.62,-13.289 28.19,-13.289 h 95.81 c 11.55,0 20.96,4.421 28.18,13.289 7.23,8.871 10.84,19 10.84,30.441 z m 28.03,-2.051 c 0,-19.219 -6.12,-35.66 -18.32,-49.289 -12.23,-13.629 -27.98,-20.449 -47.24,-20.449 h -97.07 c -19.56,0 -35.66,6.75 -48.32,20.238 -12.66,13.481 -18.98,29.992 -18.98,49.5 v 67.172 c 0,19.789 6.26,36.008 18.77,48.641 12.51,12.629 28.69,18.949 48.53,18.949 h 95.35 c 19.54,0 35.65,-6.402 48.31,-19.172 12.64,-12.758 18.97,-28.91 18.97,-48.418 v -67.172" /><path
         id="path132"
         style="fill:#fff200;fill-opacity:1;fill-rule:nonzero;stroke:none"
         d="m 1547.27,278.711 h -131.14 c -11.22,0 -20.5,-4.473 -27.82,-13.359 -7.34,-8.93 -11.01,-19.141 -11.01,-30.653 V 100.961 h -28.05 v 135.898 c 0,19.563 6.31,36.09 18.96,49.61 12.62,13.531 28.68,20.293 48.2,20.293 h 130.86 v -28.051" /><path
         id="path134"
         style="fill:#fff200;fill-opacity:1;fill-rule:nonzero;stroke:none"
         d="m 1727.57,183.359 c -4.03,5.762 -10.21,8.641 -18.52,8.641 h -98.82 c -15.25,0 -27.6,5.621 -37.1,16.879 -9.49,11.25 -14.24,24.691 -14.24,40.281 0,15.59 4.75,29.078 14.24,40.481 9.5,11.398 21.85,17.121 37.1,17.121 h 145.39 v -28.051 h -138.91 c -18.13,0 -27.18,-9.5 -27.18,-28.473 0,-8.34 2,-15.386 6.03,-21.148 4.03,-5.75 10.07,-8.621 18.12,-8.621 h 99.21 c 15.26,0 27.63,-5.598 37.12,-16.821 9.49,-11.218 14.25,-24.597 14.25,-40.117 0,-16.98 -4.32,-31.222 -12.95,-42.711 -9.21,-12.66 -22.02,-18.988 -38.42,-18.988 h -145.37 v 27.617 h 138.94 c 18.09,0 27.15,10.922 27.15,32.781 0,8.34 -2.01,15.372 -6.04,21.129" /><path
         id="path136"
         style="fill:#fff200;fill-opacity:1;fill-rule:nonzero;stroke:none"
         d="m 2024.39,170.859 c 0,-20.14 -6.18,-36.82 -18.56,-50.039 -12.37,-13.238 -28.61,-19.859 -48.75,-19.859 -12.66,0 -28.32,0 -47.02,0 l -47.46,0.43 0.44,27.629 h 94.35 c 11.54,0 20.93,4.441 28.14,13.359 7.21,8.91 10.81,19.133 10.81,30.641 v 60.82 c 0,11.801 -3.45,21.719 -10.38,29.781 -6.92,8.039 -16.15,12.07 -27.67,12.07 h -92.99 c -11.24,0 -20.84,-3.972 -28.75,-11.859 -7.93,-7.934 -11.91,-17.48 -11.91,-28.703 V 52.2109 H 1796.6 V 232.109 c 0,19.571 6.55,36.379 19.62,50.481 13.09,14.101 29.42,21.148 48.97,21.148 h 92.76 c 19.56,0 35.51,-6.047 47.88,-18.129 12.38,-12.078 18.56,-27.89 18.56,-47.449 v -67.301" /><path
         id="path138"
         style="fill:#fff200;fill-opacity:1;fill-rule:nonzero;stroke:none"
         d="m 2258.72,172.75 v 60.48 c 0,11.731 -3.61,22.032 -10.82,30.899 -7.23,8.851 -16.64,13.281 -28.2,13.281 h -95.81 c -11.56,0 -20.95,-4.43 -28.18,-13.281 -7.23,-8.867 -10.84,-19.168 -10.84,-30.899 v -60.48 c 0,-11.441 3.61,-21.57 10.84,-30.441 7.23,-8.868 16.62,-13.289 28.18,-13.289 h 95.81 c 11.56,0 20.97,4.421 28.2,13.289 7.21,8.871 10.82,19 10.82,30.441 z m 28.06,-2.051 c 0,-19.219 -6.12,-35.66 -18.34,-49.289 -12.23,-13.629 -27.97,-20.449 -47.25,-20.449 h -97.07 c -19.54,0 -35.66,6.75 -48.3,20.238 -12.66,13.481 -18.99,29.992 -18.99,49.5 v 67.172 c 0,19.789 6.26,36.008 18.78,48.641 12.49,12.629 28.68,18.949 48.51,18.949 h 95.35 c 19.56,0 35.66,-6.402 48.32,-19.172 12.66,-12.758 18.99,-28.91 18.99,-48.418 v -67.172" /><path
         id="path140"
         style="fill:#fff200;fill-opacity:1;fill-rule:nonzero;stroke:none"
         d="m 2517.14,278.711 h -131.15 c -11.22,0 -20.48,-4.473 -27.82,-13.359 -7.34,-8.93 -11.01,-19.141 -11.01,-30.653 V 100.961 h -28.03 v 135.898 c 0,19.563 6.31,36.09 18.93,49.61 12.63,13.531 28.71,20.293 48.22,20.293 h 130.86 v -28.051" /><path
         id="path142"
         style="fill:#fff200;fill-opacity:1;fill-rule:nonzero;stroke:none"
         d="m 2629.31,100.961 h -26.32 c -19.55,0 -35.66,6.769 -48.32,20.289 -12.67,13.5 -18.98,30.039 -18.98,49.609 v 205.782 h 28.04 v -72.469 h 64.29 v -28.051 h -64.29 V 172.879 c 0,-11.457 3.61,-21.649 10.86,-30.539 7.23,-8.879 16.65,-13.32 28.24,-13.32 h 26.48 v -28.059" /><path
         id="path144"
         style="fill:#231f20;fill-opacity:1;fill-rule:nonzero;stroke:none"
         d="m 6471.24,1620.98 c -4.93,19.27 -12.51,32.23 -7.76,59.54 21.01,67.29 -10.31,76.15 -29.77,-1.46 0.74,-27.58 13.33,-51.78 22.83,-89.49 23.01,-82.73 37.25,-42.27 14.7,31.41 z m -428.52,545.04 c -40,59.54 -80.63,122.54 -108.02,189.84 -18.27,44.65 -30.6,91.21 -33.15,139.98 -0.18,2.83 -0.28,5.66 -0.37,8.49 -3.29,67.57 -30.31,71.59 -41.45,6.85 0.19,-5.21 0.36,-10.32 0.82,-15.34 v -0.09 c 3.47,-48.4 15.7,-94.97 33.24,-139.89 13.51,-34.61 30.13,-68.21 48.3,-100.99 18.18,-32.69 37.81,-64.56 57.35,-95.61 8.58,-14.97 -1.37,-48.85 -11.88,-83.37 -5.75,-18.8 -11.59,-37.8 -14.78,-53.96 -2.56,-13.05 -31.23,-16.62 -33.79,-29.77 10.13,-6.93 46.47,-23.37 56.61,-30.22 7.67,33.33 22.65,75.88 34.15,113.95 11.96,39.73 20.18,74.7 12.97,90.13 z m -1171.8,-556.63 h -0.1 c -0.46,-0.19 -0.91,-0.37 -1.36,-0.55 -58.9,-25.39 -155.87,-78.35 -236.32,-111.86 -75.7,-23.19 -67.93,-38.9 -8.3,-23.83 84.64,32.41 172.12,50.95 254.11,89.39 36.35,15.53 76.98,32.78 118.25,46.85 18.08,6.21 36.34,11.68 54.42,16.16 9.13,2.37 15.98,-7.85 23.2,-16.16 4.47,-5.21 9.22,-9.68 14.79,-9.68 0.82,0 1.64,0.18 2.55,0.36 0.27,1.92 0.73,5.2 1.38,9.32 2.64,17.34 8.12,49.67 9.03,57.61 -77.06,-19.27 -169.83,-31.41 -231.65,-57.61" /><path
         id="path146"
         style="fill:#231f20;fill-opacity:1;fill-rule:nonzero;stroke:none"
         d="m 6123.71,2074.89 h -0.37 c -14.88,-45.01 -34.69,-95.69 -48.02,-138.98 h -0.09 c -2.47,-8.12 -4.85,-15.97 -6.76,-23.55 -5.3,3.65 -18.91,13.97 -31.6,23.65 -10.31,7.85 -20.18,15.34 -24.46,18.26 3.1,13.52 33.41,4.66 36.52,18.17 7.12,30.77 21.09,68.39 32.68,103.45 h 0.38 c 13.6,42.01 23.46,80.45 13.87,99.36 -41.28,56.24 -83.83,115.96 -113.32,180.61 l -0.15,0.33 c -20.27,44.29 -34.91,90.43 -38.38,139.65 0,0.45 -0.09,0.91 -0.09,1.37 3.47,30.13 13.14,44.19 22.73,44.19 10.33,0 20.46,-16.07 22.74,-45.56 0.18,-2.11 0.27,-4.11 0.37,-6.3 0.82,-11.78 2.28,-23.38 4.38,-34.89 1,-5.56 2.19,-11.04 3.47,-16.61 1.28,-5.58 2.73,-11.15 4.39,-16.71 0.72,-2.74 1.55,-5.48 2.46,-8.22 3.56,-11.51 7.67,-22.83 12.32,-34.06 1.01,-2.47 2.01,-4.84 3.11,-7.3 2.1,-4.94 4.66,-9.39 6.95,-14.33 l 0.26,-0.47 c 29.49,-62.09 72.14,-119.16 113.41,-172.49 9.68,-18.35 -0.73,-60.53 -16.8,-109.57" /><path
         id="path148"
         style="fill:#231f20;fill-opacity:1;fill-rule:nonzero;stroke:none"
         d="m 6351.08,1804.43 c -0.74,-2.47 -1.83,-5.3 -3.2,-8.59 -0.09,0 -0.09,-0.09 -0.09,-0.18 h -0.09 c 0,0.09 0,0.27 0.09,0.37 0,0.09 0,0.18 0.09,0.18 1.37,3.1 2.38,5.84 3.2,8.22" /><path
         id="path150"
         style="fill:#231f20;fill-opacity:1;fill-rule:nonzero;stroke:none"
         d="m 5352.68,1222.5 c -188.11,34.97 -179.61,242.07 -33.6,352 l 33.6,-352" /><path
         id="path152"
         style="fill:#231f20;fill-opacity:1;fill-rule:nonzero;stroke:none"
         d="m 5681.95,1557.79 c -34.8,-274.66 -106.48,-361.59 -300.78,-339.31 l -35.43,370.82 -2.84,-0.28 c 137.98,58.53 344.61,32.69 339.05,-31.23" /><path
         id="path154"
         style="fill:#231f20;fill-opacity:1;fill-rule:nonzero;stroke:none"
         d="m 5319.08,1574.5 c -146.01,-109.93 -154.51,-317.03 33.6,-352 z m 0,0 c -146.01,-109.93 -154.51,-317.03 33.6,-352 z m 0,0 c -146.01,-109.93 -154.51,-317.03 33.6,-352 z m 0,0 c -146.01,-109.93 -154.51,-317.03 33.6,-352 z m 0,0 c -146.01,-109.93 -154.51,-317.03 33.6,-352 z m 0,0 c -146.01,-109.93 -154.51,-317.03 33.6,-352 z m 0,0 c -146.01,-109.93 -154.51,-317.03 33.6,-352 z m 0,0 c -146.01,-109.93 -154.51,-317.03 33.6,-352 z m 0,0 c -146.01,-109.93 -154.51,-317.03 33.6,-352 z m 0,0 c -146.01,-109.93 -154.51,-317.03 33.6,-352 z m 0,0 c -146.01,-109.93 -154.51,-317.03 33.6,-352 z m 0,0 c -146.01,-109.93 -154.51,-317.03 33.6,-352 z m 0,0 c -146.01,-109.93 -154.51,-317.03 33.6,-352 z m 0,0 c -146.01,-109.93 -154.51,-317.03 33.6,-352 z m 0,0 c -146.01,-109.93 -154.51,-317.03 33.6,-352 z m 0,0 c -146.01,-109.93 -154.51,-317.03 33.6,-352 z m 0,0 c -146.01,-109.93 -154.51,-317.03 33.6,-352 z m 0,0 c -146.01,-109.93 -154.51,-317.03 33.6,-352 z m 0,0 c -146.01,-109.93 -154.51,-317.03 33.6,-352 z m 0,0 c -146.01,-109.93 -154.51,-317.03 33.6,-352 z m 0,0 c -146.01,-109.93 -154.51,-317.03 33.6,-352 z m 0,0 c -146.01,-109.93 -154.51,-317.03 33.6,-352 z m 0,0 c -146.01,-109.93 -154.51,-317.03 33.6,-352 z m 0,0 c -146.01,-109.93 -154.51,-317.03 33.6,-352 z m 0,0 c -146.01,-109.93 -154.51,-317.03 33.6,-352 z m 0,0 c -146.01,-109.93 -154.51,-317.03 33.6,-352 z m -448.16,34.89 h -0.1 c -0.46,-0.19 -0.91,-0.37 -1.36,-0.55 -58.9,-25.39 -155.87,-78.35 -236.32,-111.86 -75.7,-23.19 -67.93,-38.9 -8.3,-23.83 84.64,32.41 172.12,50.95 254.11,89.39 36.35,15.53 76.98,32.78 118.25,46.85 18.08,6.21 36.34,11.68 54.42,16.16 9.13,2.37 15.98,-7.85 23.2,-16.16 4.47,-5.21 9.22,-9.68 14.79,-9.68 0.82,0 1.64,0.18 2.55,0.36 0.27,1.92 0.73,5.2 1.38,9.32 2.64,17.34 8.12,49.67 9.03,57.61 -77.06,-19.27 -169.83,-31.41 -231.65,-57.61 z m 448.16,-34.89 c -146.01,-109.93 -154.51,-317.03 33.6,-352 z m 723.64,591.52 c -40,59.54 -80.63,122.54 -108.02,189.84 -18.27,44.65 -30.6,91.21 -33.15,139.98 -0.18,2.83 -0.28,5.66 -0.37,8.49 -3.29,67.57 -30.31,71.59 -41.45,6.85 0.19,-5.21 0.36,-10.32 0.82,-15.34 v -0.09 c 3.47,-48.4 15.7,-94.97 33.24,-139.89 13.51,-34.61 30.13,-68.21 48.3,-100.99 18.18,-32.69 37.81,-64.56 57.35,-95.61 8.58,-14.97 -1.37,-48.85 -11.88,-83.37 -5.75,-18.8 -11.59,-37.8 -14.78,-53.96 -2.56,-13.05 -31.23,-16.62 -33.79,-29.77 10.13,-6.93 46.47,-23.37 56.61,-30.22 7.67,33.33 22.65,75.88 34.15,113.95 11.96,39.73 20.18,74.7 12.97,90.13 z m 288.27,-365.61 c -0.73,-1.55 -1.47,-2.93 -2.2,-4.38 h 0.19 c 0.64,1.36 1.36,2.64 2.01,4.1 0.91,1.65 1.91,3.2 3.01,4.85 -1.18,-1.47 -2.19,-3.02 -3.01,-4.57 z m 140.25,-179.43 c -4.93,19.27 -12.51,32.23 -7.76,59.54 21.01,67.29 -10.31,76.15 -29.77,-1.46 0.74,-27.58 13.33,-51.78 22.83,-89.49 23.01,-82.73 37.25,-42.27 14.7,31.41 z M 5319.08,1574.5 c -146.01,-109.93 -154.51,-317.03 33.6,-352 z m 0,0 c -146.01,-109.93 -154.51,-317.03 33.6,-352 z m 0,0 c -146.01,-109.93 -154.51,-317.03 33.6,-352 z m 0,0 c -146.01,-109.93 -154.51,-317.03 33.6,-352 z m 0,0 c -146.01,-109.93 -154.51,-317.03 33.6,-352 z m 0,0 c -146.01,-109.93 -154.51,-317.03 33.6,-352 z m 0,0 c -146.01,-109.93 -154.51,-317.03 33.6,-352 z m 0,0 c -146.01,-109.93 -154.51,-317.03 33.6,-352 z m 0,0 c -146.01,-109.93 -154.51,-317.03 33.6,-352 z m 0,0 c -146.01,-109.93 -154.51,-317.03 33.6,-352 z m 0,0 c -146.01,-109.93 -154.51,-317.03 33.6,-352 z m 0,0 c -146.01,-109.93 -154.51,-317.03 33.6,-352 z m 0,0 c -146.01,-109.93 -154.51,-317.03 33.6,-352 z m 0,0 c -146.01,-109.93 -154.51,-317.03 33.6,-352 z m 0,0 c -146.01,-109.93 -154.51,-317.03 33.6,-352 z m 0,0 c -146.01,-109.93 -154.51,-317.03 33.6,-352 z m 0,0 c -146.01,-109.93 -154.51,-317.03 33.6,-352 z m 0,0 c -146.01,-109.93 -154.51,-317.03 33.6,-352 z m 0,0 c -146.01,-109.93 -154.51,-317.03 33.6,-352 z m 0,0 c -146.01,-109.93 -154.51,-317.03 33.6,-352 z m 0,0 c -146.01,-109.93 -154.51,-317.03 33.6,-352 z m 0,0 c -146.01,-109.93 -154.51,-317.03 33.6,-352 z m 0,0 c -146.01,-109.93 -154.51,-317.03 33.6,-352 z m 0,0 c -146.01,-109.93 -154.51,-317.03 33.6,-352 z m 0,0 c -146.01,-109.93 -154.51,-317.03 33.6,-352 z m 0,0 c -146.01,-109.93 -154.51,-317.03 33.6,-352 l -33.6,352" /><path
         id="path156"
         style="fill:#231f20;fill-opacity:1;fill-rule:nonzero;stroke:none"
         d="m 6330.99,1800.13 c 1.73,3.2 4.11,6.49 6.76,9.41 l 1.36,1.37 c 1.74,1.82 3.57,3.38 5.3,4.66 0.92,0.54 1.74,1.09 2.47,1.46 0.82,0.36 1.55,0.64 2.19,0.82 3.83,0.73 5.57,-2.65 2.01,-13.42 -0.82,-2.38 -1.83,-5.12 -3.2,-8.22 -0.09,0 -0.09,-0.09 -0.09,-0.18 -0.09,-0.1 -0.09,-0.28 -0.09,-0.37 -5.29,-13.51 -2.37,-32.69 -0.36,-42.46 7.58,-44.56 14.88,-94.42 23,-143.81 7.4,-45.11 15.43,-89.85 24.84,-129.58 1.64,-8.31 2.37,-16.62 2.37,-24.47 0,-13.79 -2.19,-25.84 -5.38,-32.6 -1.74,-3.55 -3.75,-5.65 -5.94,-5.65 -2.01,0 -4.02,1.73 -6.12,5.75 -2.46,4.74 -4.83,12.6 -6.93,24.38 -10.78,50.31 -20,106.19 -28.59,162.17 -8.03,52.31 -15.61,104.64 -23.55,152.58 -0.46,19.08 3.65,26.57 7.75,34.06 l 2.2,4.1" /><path
         id="path158"
         style="fill:#231f20;fill-opacity:1;fill-rule:nonzero;stroke:none"
         d="m 5947.93,2075.89 c -12.23,-29.94 -27.48,-62.91 -33.14,-92.49 -12.7,-6.85 -54.05,-25.94 -66.66,-32.69 2.1,13.24 32.97,38.72 34.98,51.86 3.55,22.01 11.68,48.58 18.07,73.42 7.58,29.67 12.88,56.88 4.94,71.4 -34.8,66.93 -69.12,136.24 -92.42,208.47 -14.69,45.38 -25.02,92.04 -28.39,139.89 v 0.09 c -0.64,9.12 -1,18.26 -1.1,27.48 10.32,86.93 34.43,79.63 37.44,-6.02 0.09,-7.13 0.28,-14.34 0.74,-21.46 3.19,-47.48 15.88,-94.32 33.78,-139.98 28.85,-73.87 71.13,-144.64 107.92,-210.29 3.21,-17.81 -5.2,-42.56 -16.16,-69.58 v -0.1" /><path
         id="path160"
         style="fill:#231f20;fill-opacity:1;fill-rule:nonzero;stroke:none"
         d="m 5880.55,2134.15 c -3.19,-19.99 -8.77,-39.17 -15.16,-58.07 v -0.09 c -14.79,-43.1 -34.24,-84.47 -41.45,-130.12 -10.87,0.82 -54.97,3.83 -65.84,4.65 1.55,12.24 36.25,22.19 37.8,34.52 3.84,31.23 6.12,60.91 8.77,90.85 0,0.1 0,0.1 0,0.19 1.64,19.17 3.47,38.44 5.93,58.53 -29.03,71.22 -56.07,145.37 -73.96,221.25 -10.78,46.11 -18.26,92.86 -20.63,139.89 v 0.09 c -1.92,36.98 -0.73,74.33 4.47,111.67 8.04,38.81 46.39,78.8 29.95,-57.98 -1,-17.9 -0.64,-35.8 0.82,-53.69 2.1,-23.56 6.12,-46.94 11.59,-70.31 5.58,-23.38 12.61,-46.57 20.74,-69.67 27.02,-76.8 65.38,-151.58 96.97,-221.71" /><path
         id="path162"
         style="fill:#231f20;fill-opacity:1;fill-rule:nonzero;stroke:none"
         d="m 6222.24,2075.99 h -0.37 c -15.43,-47.76 -34.79,-99.26 -50.49,-139.98 h -0.46 c -16.16,-42.19 -28.4,-72.42 -28.5,-73.96 -10.12,7.03 -49.58,34.97 -59.71,42 3.92,14.97 37.08,9.22 41.09,24.29 0.73,2.83 1.85,5.74 2.77,8.66 l 0.06,0.19 c 12.14,41.92 32.79,93.23 49.22,139.8 h 0.36 c 19,53.69 32.24,100.99 20.09,120.9 -41.91,49.12 -83.09,100.72 -113.49,157.97 -10.51,19.72 -19.73,40.08 -27.22,61.18 -28.13,100.16 40,-6.22 77.7,-61.18 h 0.1 c 9.68,-14.07 17.35,-24.75 20.91,-27.76 26.76,-41.73 58.08,-80.17 91.04,-117.06 11.96,-12.97 -2.01,-70.4 -23.1,-135.05" /><path
         id="path164"
         style="fill:#231f20;fill-opacity:1;fill-rule:nonzero;stroke:none"
         d="m 5788.96,2129.5 c -2.28,-18.36 -6.75,-36.07 -12.05,-53.61 -12.51,-40.99 -29.77,-80.71 -35.06,-123.82 -10.87,0.83 -53.88,4.3 -64.75,5.12 1.28,14.06 34.61,25.48 35.8,39.45 2.38,26.48 4.66,52.87 6.94,79.35 1.74,19.54 3.47,38.99 5.11,58.53 -21.82,72.96 -42.27,146.73 -56.33,221.34 -8.59,46.02 -14.8,92.4 -17.26,139.06 -0.1,0.28 -0.1,0.55 -0.1,0.83 -2.37,45.56 -1.28,91.49 4.57,137.69 8.86,68.12 39.81,49.31 34.79,-9.85 -6.66,-42.46 -7.21,-85.2 -3.28,-127.75 h 0.08 c 4.48,-46.84 14.25,-93.6 26.85,-139.98 21,-77.16 49.77,-153.13 74.69,-226.36" /><path
         id="path166"
         style="fill:#231f20;fill-opacity:1;fill-rule:nonzero;stroke:none"
         d="m 5690.16,2075.89 c -11.13,-38.25 -26.75,-75.97 -30.23,-115.5 -10.77,5.02 -55.5,25.38 -66.19,30.4 0.73,13.42 35.42,11.42 36.16,24.84 1,20.55 1.82,40.45 2.55,60.36 0.65,17.89 1.37,35.79 2.29,54.24 -14.25,74.6 -27.22,149.93 -35.98,225.63 -5.48,46.57 -9.31,93.23 -10.95,139.98 -1.83,52.05 -0.82,104.18 3.74,156.32 11.32,45.29 38.72,46.2 34.42,-9.95 -6.21,-48.76 -5.94,-97.62 -1.55,-146.37 4.2,-46.75 12.15,-93.5 22.01,-139.98 16.16,-76.34 37.25,-152.13 54.51,-226.64 -1.65,-18.08 -5.75,-35.7 -10.78,-53.23 v -0.1" /><path
         id="path168"
         style="fill:#231f20;fill-opacity:1;fill-rule:nonzero;stroke:none"
         d="m 5603.78,2128.86 c -0.91,-18.08 -4.74,-35.52 -9.04,-52.87 v -0.1 c -6.48,-25.66 -14.06,-51.13 -15.52,-77.88 -11.33,5.2 -49.4,10.95 -60.72,16.16 0.18,12.69 27.21,24.93 27.39,37.53 0.19,8.12 0.36,16.16 0.46,24.29 0.36,19.08 0.64,38.17 1.01,57.25 -6.21,74.14 -11.97,148.38 -16.08,222.62 -2.64,46.57 -4.57,93.23 -5.56,139.89 v 0.09 c -0.74,38.16 -0.92,76.43 -0.29,114.78 5.94,53.78 33.43,76.79 34.61,24.28 -3.01,-46.2 -2.73,-92.58 -0.17,-139.06 2.55,-46.66 7.39,-93.32 13.14,-139.98 9.41,-76.06 21.46,-152.04 30.77,-227" /><path
         id="path170"
         style="fill:#231f20;fill-opacity:1;fill-rule:nonzero;stroke:none"
         d="m 5509.62,2141.7 c -0.37,-20.82 -3.56,-43.29 -6.76,-65.84 -3.47,-23.74 -7.03,-47.48 -7.4,-69.48 -11.5,-4.11 -49.67,-15.35 -61.17,-19.45 -0.19,12.68 26.29,32.41 26.02,45.01 -0.28,14.61 -0.45,29.31 -0.73,43.92 -0.37,20.27 -0.73,40.45 -1.1,60.63 1.92,73.14 3.65,146.19 4.66,219.33 0.64,46.66 1,93.32 0.92,139.98 0,23.65 -0.1,47.3 -0.38,70.95 7.77,72.14 27.04,85.01 31.97,22.74 -0.46,-31.51 -0.19,-62.64 0.46,-93.69 1,-46.93 3.1,-93.41 5.29,-139.98 3.29,-70.77 7.12,-141.71 8.22,-214.12" /><path
         id="path172"
         style="fill:#231f20;fill-opacity:1;fill-rule:nonzero;stroke:none"
         d="m 5434.1,2566.29 c -0.09,-23.37 -0.18,-46.93 -0.27,-70.58 -0.37,-46.48 -1.09,-93.14 -2.37,-139.89 -2.2,-74.23 -6.12,-148.38 -12.97,-221.24 l -1.91,-58.72 c -2.29,-32.78 -5.48,-65.1 -4.94,-99.34 -11.05,-4.02 -51.69,-18.63 -62.82,-22.65 -0.73,14.25 28.03,39.17 27.3,53.42 -1.19,22.92 -2.38,45.74 -3.66,68.57 l -3.46,66.57 c 9.77,70.95 18.81,142.08 25.02,213.39 4.01,46.57 6.75,93.23 7.76,139.98 0.55,24.47 0.64,48.95 0.09,73.51 1.37,91.95 30.14,78.44 32.23,-3.02" /><path
         id="path174"
         style="fill:#231f20;fill-opacity:1;fill-rule:nonzero;stroke:none"
         d="m 5371.64,2572.14 c 0.37,-25.48 -0.17,-50.95 -1.45,-76.34 -2.37,-46.84 -7.13,-93.5 -13.61,-139.98 -9.68,-70.03 -23.1,-139.61 -37.53,-208.83 1.28,-23.74 2.47,-47.39 3.75,-71.13 2.28,-42.91 4.47,-85.83 6.75,-128.75 -4.84,-1.73 -15.98,-6.3 -27.66,-11.14 -14.16,-5.93 -29.13,-12.24 -35.07,-14.24 -0.27,3.74 1.91,8.76 5.29,14.24 8.04,13.33 22.47,29.59 21.64,38.9 -2.82,32.32 -9.95,67.67 -14.24,100.99 -3.56,27.3 -5.2,53.24 -1.19,75.33 17.08,67.66 33.06,135.88 44.2,204.63 7.58,46.39 12.97,93.05 15.16,139.98 1.28,26.39 1.46,52.87 0.46,79.35 -1.65,78.07 32.68,75.79 33.5,-3.01" /><path
         id="path176"
         style="fill:#231f20;fill-opacity:1;fill-rule:nonzero;stroke:none"
         d="m 5162,2495.8 c -7.49,-47.3 -22.19,-95.51 -39.36,-139.98 -27.85,-71.77 -62.19,-133.86 -83.27,-167.37 -4.93,-11.41 1.45,-56.43 11.68,-112.59 8.03,-43.46 18.36,-93.69 27.49,-139.89 6.93,-34.88 13.24,-67.48 17.25,-93.32 -10.49,-2.56 -20.9,-5.2 -31.41,-7.85 -5.48,28.21 -13.51,63.64 -22.28,101.17 -10.77,46.39 -22.55,96.06 -32.05,139.89 -12.6,58.72 -21,106.93 -16.8,122.36 31.41,50.41 62.28,102.82 86.2,157.6 19.63,44.84 34.61,91.41 41.36,139.98 1.64,11.87 2.84,23.93 3.47,35.98 -3.74,102.81 30.14,162.53 42.19,48.94 1.91,-27.3 0.09,-55.97 -4.47,-84.92" /><path
         id="path178"
         style="fill:#231f20;fill-opacity:1;fill-rule:nonzero;stroke:none"
         d="m 5042.29,2385.04 c -3.65,-9.86 -7.85,-19.63 -12.42,-29.22 -30.96,-64.19 -80.08,-119.62 -89.58,-145.18 -3.74,-13.43 6.67,-68.03 21.28,-134.78 9.67,-44.1 21.18,-93.5 31.77,-139.89 9.22,-40.45 17.72,-78.43 23.56,-108.75 -10.5,-2.65 -20.91,-5.29 -31.41,-7.85 -8.5,36.7 -17.71,76.15 -27.22,116.6 -10.68,46.02 -21.91,93.42 -32.77,139.89 -11.96,51.23 -23.74,101.36 -34.34,147.38 -8.76,20.36 46.58,62.73 67.39,95.88 14.25,16.43 23.56,26.56 32.23,36.7 9.59,11.32 18.27,22.65 31.69,42.56 23.37,38.25 38.17,33.78 19.82,-13.34" /><path
         id="path180"
         style="fill:#231f20;fill-opacity:1;fill-rule:nonzero;stroke:none"
         d="m 4718.86,1703.4 -27.21,-17.99 -15.52,61.36 c -12.51,44.93 12.42,32.69 21.64,8.04 l 21.09,-51.41" /><path
         id="path182"
         style="fill:#231f20;fill-opacity:1;fill-rule:nonzero;stroke:none"
         d="m 4785.06,1748.96 -30.41,-17.98 -21.09,65.01 -20.64,63.64 c -18.17,57.17 7.58,86.48 25.84,38.17 l 31.69,-101.81 14.61,-47.03" /><path
         id="path184"
         style="fill:#231f20;fill-opacity:1;fill-rule:nonzero;stroke:none"
         d="m 4858.38,1789.33 -31.13,-12.24 -5.75,18.9 -42.56,139.98 -4.47,14.79 c -15.07,47.58 5.85,100.91 27.85,33.97 l 13.97,-48.76 40.18,-139.98 1.91,-6.66" /><path
         id="path186"
         style="fill:#231f20;fill-opacity:1;fill-rule:nonzero;stroke:none"
         d="m 4937.46,1809.23 -31.6,-7.85 -36.06,134.59 -37.53,139.89 -12.05,45.11 c -6.76,49.22 17.53,140.89 33.5,43.64 l 20.92,-88.75 32.96,-139.89 29.86,-126.74" /><path
         id="path188"
         style="fill:#231f20;fill-opacity:1;fill-rule:nonzero;stroke:none"
         d="m 5233.76,2495.71 c -5.1,-47.48 -15.79,-94.14 -29.76,-139.89 h -0.09 c -19.08,-62.36 -44.47,-123.27 -70.86,-182.71 3.65,-29.59 7.39,-62.73 11.23,-97.25 5.12,-46.2 10.32,-94.69 15.34,-139.89 2.83,-24.92 5.57,-48.85 8.31,-70.76 l -31.69,-7.85 c -3.56,22.82 -9.04,49.85 -15.07,78.61 -9.67,45.84 -20.72,95.88 -27.84,139.89 -7.21,44.75 -10.41,83.18 -4.02,104.82 27.85,56.71 54.88,115.06 75.15,175.14 15.44,45.66 27.03,92.23 32.14,139.98 3.29,30.68 4.02,61.83 1.28,93.41 -0.09,71.5 28.58,61.92 38.63,-3.19 1.55,-30.5 0.54,-60.54 -2.75,-90.31" /><path
         id="path190"
         style="fill:#231f20;fill-opacity:1;fill-rule:nonzero;stroke:none"
         d="m 5304.9,2495.8 c -3.56,-47.11 -11.15,-93.77 -21.19,-139.98 -14.61,-67.11 -34.61,-133.22 -55.7,-198.51 2.37,-27.12 4.75,-54.24 7.13,-81.45 4.01,-46.66 8.12,-93.23 12.23,-139.89 0.55,-5.84 1,-11.69 1.55,-17.62 -10.5,-3.74 -47.66,-32.69 -58.16,-36.44 -1.28,9.96 17.81,39.18 21.73,54.06 0.64,2.19 0.82,4.02 0.64,5.57 -4.84,40 -15.52,90.4 -22.65,134.32 -5.94,37.26 -9.4,69.76 -4.56,87.2 23.37,63.19 45.57,127.39 61.54,192.76 11.32,46.11 19.55,92.68 23.01,139.98 2.1,28.22 2.56,56.62 0.82,85.29 3.02,77.89 35.71,68.3 35.62,-3.11 0.82,-27.57 0.09,-54.97 -2.01,-82.18" /><path
         id="path192"
         style="fill:#231f20;fill-opacity:1;fill-rule:nonzero;stroke:none"
         d="m 5164.55,1844.84 c -2.74,-7.67 -13.33,-30.86 -21.28,-48.85 -3.83,-8.86 -7.11,-16.44 -8.48,-20.18 -13.52,-3.38 -16.54,14.15 -25.3,20.18 -2.55,1.74 -5.57,2.47 -9.5,1.55 -2.01,-0.54 -4.11,-1 -6.11,-1.55 h -0.19 c -103.36,-26.2 -199.06,-59.9 -246.35,-81.72 -50.86,-22.74 -128.12,-67.3 -193.13,-104.92 h -0.09 c -1.65,-1 -3.2,-1.92 -4.75,-2.83 -25.93,-14.06 -69.12,-17.26 -39.63,2.83 2.2,1.46 4.84,3.11 7.85,4.93 6.4,3.66 152.59,106.29 215.87,141.9 23.01,11.96 71.03,25.75 127.1,39.81 66.3,16.71 143.73,33.79 203.99,48.85" /><path
         id="path194"
         style="fill:#231f20;fill-opacity:1;fill-rule:nonzero;stroke:none"
         d="m 5131.68,1754.26 c -3.84,-10.59 -23.02,-60.35 -26.84,-70.86 -15.35,-3.83 -15.35,31.41 -30.77,27.58 -71.51,-17.81 -163.45,-49.76 -202.81,-69.03 -12.33,-6.94 -38.63,-18.36 -71.77,-32.6 -43.75,-18.72 -99.35,-42.37 -149.85,-66.75 -48.85,-21.64 -35.52,4.93 10.6,28.04 22.1,11.59 44.2,25.01 66.01,38.71 43.56,27.39 86.29,56.07 126.84,75.43 60.17,26.84 185.72,46.29 278.59,69.48" /><path
         id="path196"
         style="fill:#231f20;fill-opacity:1;fill-rule:nonzero;stroke:none"
         d="m 6394.97,1609.35 c -1.55,4.75 -3.19,10.32 -4.84,16.98 -6.93,29.95 -16.16,49.13 -16.61,71.04 14.61,61.83 37.8,54.88 22,1.28 -3.56,-21.73 2.01,-32.05 5.66,-47.39 4.66,-16.62 7.12,-31.13 7.94,-41.91 1.65,-23.19 -4.65,-28.76 -14.15,0" /><path
         id="path198"
         style="fill:#231f20;fill-opacity:1;fill-rule:nonzero;stroke:none"
         d="m 6324.69,1374.35 c -1.46,15.61 -2.93,31.77 -4.57,48.67 -5.48,58.44 -11.96,123 -22.28,186.37 h -0.09 c -10.5,64.1 -25.11,126.92 -46.66,180.98 -0.28,1.82 -0.36,3.74 -0.45,5.66 -0.73,26.66 15.6,60.54 23.83,82.09 8.31,24.47 16.34,43.64 23.46,57.89 21.18,41.72 34.79,39.72 25.75,0 -3.01,-13.15 -8.49,-30.41 -16.98,-51.6 -7.3,-25.1 -15.61,-55.97 -14.79,-88.38 0.18,-5.76 0.63,-11.6 1.36,-17.44 9.68,-55.61 19.27,-112.13 29.05,-168.57 h 0.09 c 10.86,-62.72 21.72,-125.55 32.95,-187 h 0.1 c 0,-0.28 0,-0.46 0.09,-0.64 11.87,-63.46 -15.7,-122.17 -30.86,-48.03" /><path
         id="path200"
         style="fill:#231f20;fill-opacity:1;fill-rule:nonzero;stroke:none"
         d="m 4983.02,1282.73 c -33.42,-8.31 -68.85,-22.55 -100.35,-25.02 -57.16,-8.4 -137.97,0.64 -206.82,-3.65 -56.52,1.82 -55.7,18.81 -5.84,20.82 71.4,6.75 142.72,3.65 214.86,12.05 30.4,7.58 60.72,15.16 91.12,22.74 37.63,9.68 54.7,-14.98 7.03,-26.94" /><path
         id="path202"
         style="fill:#231f20;fill-opacity:1;fill-rule:nonzero;stroke:none"
         d="m 5004.76,1182.38 c -43.93,-10.96 -94.14,-39.63 -131.67,-32.78 -53.88,7.57 -108.03,13.97 -162.35,17.16 -68.31,9.95 -65.66,28.58 -22.38,28.4 63.37,-0.09 126.55,-4.29 189.56,-10.05 40.91,-9.03 78.9,19.73 118.34,29.59 l 8.5,-32.32" /><path
         id="path204"
         style="fill:#231f20;fill-opacity:1;fill-rule:nonzero;stroke:none"
         d="m 5024.11,1088.14 c -47.2,-11.78 -96.15,-34.6 -141.53,-35.24 -16.52,1.46 -36.06,5.3 -43.37,9.67 -58.89,14.98 -39.35,29.32 -18.99,25.76 14.33,-2.84 28.57,-6.3 43.01,-9.05 63.28,-4.92 102.08,25.39 153.22,38.18 2.55,-9.78 5.11,-19.54 7.66,-29.32" /><path
         id="path206"
         style="fill:#231f20;fill-opacity:1;fill-rule:nonzero;stroke:none"
         d="m 5042.38,985.512 -66.66,-16.621 c -54.14,-12.692 -72.68,10.41 -34.15,20.281 l 93.69,23.358 7.12,-27.018" /><path
         id="path208"
         style="fill:#231f20;fill-opacity:1;fill-rule:nonzero;stroke:none"
         d="m 6125.15,645.461 c -54.79,-90.121 -171.67,-129.191 -247,-158.781 -193.49,-73.969 -420.67,6.57 -525.95,118.968 -72.87,79.274 -96.7,169.024 -178.7,248.832 -38.16,37.071 -91.41,-36.8 -183.54,50.122 -27.3,44.937 57.16,31.968 56.71,55.07 48.3,-64.281 72.5,-89.301 136.42,-33.242 130.94,-250.371 178.96,-285.442 301.87,-367.621 50.59,-32.868 238.97,-88.02 246.63,-52.778 6.85,31.879 19.18,58.719 41.55,58.348 22.37,-0.359 40.09,-27.117 39.54,-59.797 -1.92,-28.684 57.07,4.379 87.02,15.34 61.18,21.269 150.48,86.457 202.34,135.59 35.98,34.058 36.35,11.777 23.11,-10.051" /><path
         id="path210"
         style="fill:#231f20;fill-opacity:1;fill-rule:nonzero;stroke:none"
         d="m 5904.63,804.082 c 0,0 -137.24,-71.23 -240.79,0.816 154.86,-43.468 190.94,2.461 201.9,10.5 1.82,1.551 4.93,3.192 8.58,4.743 l -34.15,-1.821 -92.77,-1.191 -55.98,6.301 -51.13,4.66 53.23,14.879 55.88,-6.481 c 0,0 173.58,12.512 191.39,-3.109 8.95,-7.848 -36.16,-29.297 -36.16,-29.297" /><path
         id="path212"
         style="fill:#231f20;fill-opacity:1;fill-rule:nonzero;stroke:none"
         d="m 5983.8,896.02 c -8.13,-16.711 7.03,-11.782 -49.31,-32.872 -21.09,-7.937 -30.04,-7.386 -46.02,-5.648 l -2.74,102.898 27.3,-3.199 v -82.82 l 10.77,-4.367 -2.1,86.187 21.83,-2.461 v -68.847 l 11.33,8.398 -1.56,55.512 17.45,-3.922 c 18.62,-5.848 23.82,-26.391 13.05,-48.859" /><path
         id="path214"
         style="fill:#231f20;fill-opacity:1;fill-rule:nonzero;stroke:none"
         d="M 5877.79,961.309 V 858.488 c -8.4,0.461 -17.45,0.371 -26.66,-0.168 l -3.48,106.461 30.14,-3.472" /><path
         id="path216"
         style="fill:#231f20;fill-opacity:1;fill-rule:nonzero;stroke:none"
         d="M 5838.25,965.871 V 857.309 c -9.31,-0.918 -18.54,-2.289 -27.4,-4.297 l -12.05,1.277 -4.11,116.609 43.56,-5.027" /><path
         id="path218"
         style="fill:#231f20;fill-opacity:1;fill-rule:nonzero;stroke:none"
         d="m 5786.84,859.871 -34.97,-0.652 -4.47,110.769 37.89,-0.906 1.55,-109.211" /><path
         id="path220"
         style="fill:#231f20;fill-opacity:1;fill-rule:nonzero;stroke:none"
         d="m 5734.79,855.301 -30.5,11.777 -3.47,100.621 30.77,3.84 3.2,-116.238" /><path
         id="path222"
         style="fill:#231f20;fill-opacity:1;fill-rule:nonzero;stroke:none"
         d="m 5684.66,968.891 -1.64,-95.332 -27.12,-1.547 -3.56,100.168 32.32,-3.289" /><path
         id="path224"
         style="fill:#231f20;fill-opacity:1;fill-rule:nonzero;stroke:none"
         d="m 5632.8,871 -12.33,-35.98 -14.52,-7.301 -4.83,138.98 7.85,10.039 22.09,-6.937 1.74,-98.801" /><path
         id="path226"
         style="fill:#231f20;fill-opacity:1;fill-rule:nonzero;stroke:none"
         d="m 5584.86,816.129 c -6.58,1.18 -20.36,-0.547 -25.3,0.359 l -4.65,133.774 23.65,1.379 6.3,-135.512" /><path
         id="path228"
         style="fill:#231f20;fill-opacity:1;fill-rule:nonzero;stroke:none"
         d="m 5547.24,952.09 c -14.61,-43 -12.97,-145.461 -12.97,-145.461 -1.91,-43.457 -23.83,-89.297 -46.11,-106.188 32.69,59.348 28.94,118.789 31.77,158.778 2.38,31.871 4.85,67.761 9.87,90.32 9.59,32.32 124.55,178.791 124.55,178.791 -9.04,-60.28 -87.76,-134.139 -107.11,-176.24" /><path
         id="path230"
         style="fill:#231f20;fill-opacity:1;fill-rule:nonzero;stroke:none"
         d="m 5749.04,1044.41 c -13.33,-16.16 -42.01,-26.21 -85.83,-30.14 1.28,20.36 12.13,33.88 32.59,40.55 17.45,2.55 35.16,-0.92 53.24,-10.41" /><path
         id="path232"
         style="fill:#231f20;fill-opacity:1;fill-rule:nonzero;stroke:none"
         d="m 6153.38,1192.54 c -172.12,-35.33 -253.66,91.14 -295.2,234.22 -38.35,132.04 1.82,199.33 123.18,191.21 l 155.41,-13.61 c 192.21,-44.65 126.38,-384.33 16.61,-411.82 z m -793.67,6.13 c -241.34,32.05 -214.58,305.34 -39.45,405.88 148.66,68.84 390.63,44.19 383.05,-42.46 -37.34,-295.12 -118.15,-394.47 -343.6,-363.42 z m 945.8,224.17 c -9.4,67.2 -19.45,129.38 -30.22,186.55 -13.15,69.76 -27.31,131.94 -42.55,186.64 -4.2,14.97 -8.4,29.31 -12.7,43.1 0,0 14.44,42.73 32.79,96.78 7.57,22.47 15.88,46.85 24.01,70.96 8.12,24.01 16.16,47.75 23.38,69.02 5.2,15.44 9.95,29.59 13.96,41.46 4.03,11.87 7.31,21.55 9.5,28.12 13.79,36.44 3.56,47.76 -1.19,58.17 -25.19,53.51 -110.39,102.09 -47.66,25.66 -1,-4.2 27.95,-31.14 14.16,-57.16 -6.49,-21.28 -18.26,-56.62 -31.6,-96.25 -15.52,-46.29 -33.32,-98.16 -47.48,-139.88 -7.67,-22.46 -14.24,-41.92 -18.9,-55.8 -6.4,-18.99 -34.06,-19.72 -34.06,-19.72 l 29.95,-43.37 c 2.83,-7.03 5.56,-14.06 8.22,-21.09 11.68,-31.23 21.27,-62.55 29.22,-93.78 8.04,-31.23 14.42,-62.37 19.54,-92.86 5.48,-32.42 9.58,-64.29 12.69,-95.15 -14.98,62.09 -43.83,102.08 -99.16,121.72 -270.92,73.14 -705.76,57.8 -852.77,-9.5 -22.46,-8.68 -50.76,-28.12 -72.31,-54.33 -62.64,10.59 -102.64,10.14 -139.25,7.21 0.09,0.09 0.09,0.28 0.09,0.37 -59.45,-3.93 -151.76,-23.84 -212.4,-47.85 -89.12,-34.88 -178.5,-68.75 -269.36,-98.8 -7.12,-3.01 -14.42,-6.57 -20.73,-10.22 h -0.09 c -21,-11.97 -30.77,-23.56 13.43,-12.88 14.78,4.47 29.76,8.67 44.83,12.88 80.54,22.18 163.99,41.09 242.16,68.02 44.83,17.26 100.16,37.44 153.77,50.77 21.18,7.03 26.84,-7.94 27.57,-20.45 -1.92,-8.31 -3.66,-16.71 -5.48,-25.2 -59.72,-14.89 -119.62,-29.77 -179.34,-44.74 -35.43,-9.5 -70.95,-19 -106.46,-28.4 v -0.1 c -44.93,-11.96 -90.03,-23.83 -135.05,-35.61 -44.47,-14.42 -40.18,-29.95 4.11,-20.72 79.53,18.35 159.06,36.25 238.68,53.96 3.29,0.82 6.57,1.55 9.78,2.37 h 0.08 c 45.76,11.42 91.41,22.83 137.15,34.25 6.95,1.73 14.71,-3.65 21.64,-12.15 -1.91,-11.69 -3.55,-23.37 -4.83,-34.88 -54.42,-13.51 -108.76,-27.12 -163.17,-40.63 -77.44,-11.33 -154.78,-23.38 -231.75,-37.26 -46.85,-9.22 -38.81,-22.65 4.74,-19.72 75.24,11.32 150.85,20.18 226.55,28.03 40.08,4.75 90.03,22.37 137.69,34.33 16.44,6.76 20.55,-5.56 21.83,-17.43 -0.55,-18.72 0.09,-36.53 2.19,-52.88 15.98,-12.96 114.41,-3.65 141.71,-29.31 l 0.09,-0.09 c 8.59,-17.9 20.64,-35.06 36.99,-51.23 l 44.83,-82.08 c 24.01,-57.44 296.31,-29.5 350.36,44.93 0,0 60.82,92.4 77.34,130.48 30.78,65.47 62.28,81.17 94.52,47.11 5.75,-15.15 13.23,-34.15 18.07,-52.32 7.22,-43.64 18.9,-121.81 37.99,-143.72 44.19,-37.07 37.26,-121.9 -56.62,-143 -4.38,-1 -5.48,-3.92 -4.47,-7.94 0,0 -0.28,-4.38 20.91,0.91 92.49,23.11 105.65,114.96 51.59,161.99 -15.52,13.52 -27.94,73.96 -40.91,141.72 61.73,-140.9 158.97,-223.45 307.36,-234.86 81.91,-4.84 128.84,171.21 134.68,323.43 7.4,-110.58 10.14,-197.14 39.27,-232.85 0,0 26.66,24.02 20.36,90.31 -6.03,54.33 -12.51,106.01 -19.27,154.96" /><path
         id="path234"
         style="fill:#231f20;fill-opacity:1;fill-rule:nonzero;stroke:none"
         d="m 6160.6,1211.54 -11.69,376.75 c 132.68,-38.26 114.24,-300.23 11.69,-376.75" /><path
         id="path236"
         style="fill:#231f20;fill-opacity:1;fill-rule:nonzero;stroke:none"
         d="m 6132.93,1202.41 c -121.26,-15.25 -206.81,58.71 -256.03,228.19 -36.71,126.37 0.46,180.7 108.75,173.4 l 131.12,-11.42 16.16,-390.17" /><path
         id="path238"
         style="fill:#231f20;fill-opacity:1;fill-rule:nonzero;stroke:none"
         d="m 3837.27,405.5 h -131.15 c -19.56,0 -35.67,6.75 -48.32,20.281 -12.66,13.508 -18.98,30.051 -18.98,49.61 v 66.007 c 0,19.551 6.32,36.102 18.98,49.622 12.65,13.511 28.76,20.261 48.32,20.261 h 131.15 V 583.25 h -131.49 c -11.25,0 -20.55,-4.488 -27.9,-13.469 -7.35,-8.992 -11.03,-19.261 -11.03,-30.84 v -20.41 h 169.12 v -28.043 h -169.12 v -13.269 c 0,-11.41 3.68,-21.559 11.03,-30.41 7.35,-8.848 16.65,-13.27 27.9,-13.27 h 131.49 V 405.5" /><path
         id="path240"
         style="fill:#231f20;fill-opacity:1;fill-rule:nonzero;stroke:none"
         d="m 3902,405.5 h -28.04 V 605.672 H 3902 Z m 0,232.09 h -28.04 v 27.191 H 3902 V 637.59" /><path
         id="path242"
         style="fill:#231f20;fill-opacity:1;fill-rule:nonzero;stroke:none"
         d="m 4171.51,405.5 h -28.04 v 134.07 c 0,11.239 -3.97,20.828 -11.87,28.762 -7.91,7.93 -17.47,11.898 -28.69,11.898 h -92.74 c -11.22,0 -20.79,-3.968 -28.69,-11.898 -7.91,-7.934 -11.87,-17.523 -11.87,-28.762 V 405.5 h -28.03 v 134.02 c 0,19.601 6.53,35.96 19.62,49.07 13.08,13.101 29.41,19.68 48.97,19.68 h 92.74 c 19.56,0 35.88,-7.071 48.97,-21.188 13.08,-14.121 19.63,-30.98 19.63,-50.594 V 405.5" /><path
         id="path244"
         style="fill:#231f20;fill-opacity:1;fill-rule:nonzero;stroke:none"
         d="m 4367.67,487.91 c -4.02,5.75 -10.21,8.629 -18.55,8.629 h -98.79 c -15.24,0 -27.6,5.621 -37.1,16.883 -9.49,11.258 -14.23,24.668 -14.23,40.269 0,15.579 4.74,29.071 14.23,40.5 9.5,11.391 21.86,17.09 37.1,17.09 h 145.39 V 583.25 H 4256.8 c -18.12,0 -27.17,-9.488 -27.17,-28.488 0,-8.34 2,-15.371 6.04,-21.121 4.02,-5.762 10.07,-8.629 18.11,-8.629 h 99.23 c 15.23,0 27.61,-5.621 37.1,-16.84 9.49,-11.203 14.24,-24.582 14.24,-40.121 0,-16.969 -4.32,-31.199 -12.95,-42.699 -9.21,-12.672 -22,-18.981 -38.39,-18.981 h -145.38 v 27.598 h 138.91 c 18.11,0 27.17,10.941 27.17,32.781 0,8.352 -2.01,15.398 -6.04,21.16" /><path
         id="path246"
         style="fill:#231f20;fill-opacity:1;fill-rule:nonzero;stroke:none"
         d="m 4530.7,405.5 h -26.31 c -19.57,0 -35.68,6.75 -48.32,20.281 -12.66,13.508 -18.99,30.051 -18.99,49.61 v 205.781 h 28.04 v -72.473 h 64.28 V 580.66 h -64.28 V 477.422 c 0,-11.481 3.61,-21.652 10.85,-30.531 7.26,-8.911 16.66,-13.352 28.24,-13.352 h 26.49 V 405.5" /><path
         id="path248"
         style="fill:#231f20;fill-opacity:1;fill-rule:nonzero;stroke:none"
         d="m 4752.25,405.5 h -131.14 c -19.57,0 -35.68,6.75 -48.32,20.281 -12.67,13.508 -18.99,30.051 -18.99,49.61 v 66.007 c 0,19.551 6.32,36.102 18.99,49.622 12.64,13.511 28.75,20.261 48.32,20.261 h 131.14 V 583.25 h -131.48 c -11.25,0 -20.55,-4.488 -27.9,-13.469 -7.35,-8.992 -11.03,-19.261 -11.03,-30.84 v -20.41 h 169.12 v -28.043 h -169.12 v -13.269 c 0,-11.41 3.68,-21.559 11.03,-30.41 7.35,-8.848 16.65,-13.27 27.9,-13.27 h 131.48 V 405.5" /><path
         id="path250"
         style="fill:#231f20;fill-opacity:1;fill-rule:nonzero;stroke:none"
         d="m 4816.99,405.5 h -28.04 v 200.172 h 28.04 z m 0,232.09 h -28.04 v 27.191 h 28.04 V 637.59" /><path
         id="path252"
         style="fill:#231f20;fill-opacity:1;fill-rule:nonzero;stroke:none"
         d="m 5086.49,405.5 h -28.06 v 134.07 c 0,11.239 -3.95,20.828 -11.86,28.762 -7.91,7.93 -17.45,11.898 -28.67,11.898 h -92.74 c -11.22,0 -20.79,-3.968 -28.69,-11.898 -7.92,-7.934 -11.88,-17.523 -11.88,-28.762 V 405.5 h -28.03 v 134.02 c 0,19.601 6.54,35.96 19.62,49.07 13.09,13.101 29.41,19.68 48.98,19.68 h 92.74 c 19.56,0 35.86,-7.071 48.95,-21.188 13.09,-14.121 19.64,-30.98 19.64,-50.594 V 405.5" /><path
         id="path254"
         style="fill:#231f20;fill-opacity:1;fill-rule:nonzero;stroke:none"
         d="m 4304.92,48.75 h -28.03 v 134.082 c 0,11.238 -3.96,20.816 -11.87,28.758 -7.92,7.91 -17.47,11.879 -28.68,11.879 h -67.73 V 48.75 h -28.05 v 174.719 h -63.42 c -11.22,0 -20.77,-3.969 -28.69,-11.879 -7.91,-7.942 -11.86,-17.52 -11.86,-28.758 V 48.75 h -28.04 v 134.031 c 0,19.598 6.54,35.949 19.63,49.071 13.08,13.109 29.4,19.668 48.96,19.668 h 159.2 c 19.54,0 35.86,-7.059 48.96,-21.2 13.08,-14.109 19.62,-30.968 19.62,-50.57 v -131" /><path
         id="path256"
         style="fill:#231f20;fill-opacity:1;fill-rule:nonzero;stroke:none"
         d="m 4539.61,120.531 v 60.481 c 0,11.726 -3.61,22.027 -10.84,30.898 -7.21,8.86 -16.62,13.281 -28.18,13.281 h -95.81 c -11.57,0 -20.96,-4.421 -28.19,-13.281 -7.22,-8.871 -10.84,-19.172 -10.84,-30.898 v -60.481 c 0,-11.429 3.62,-21.5701 10.84,-30.4412 7.23,-8.8593 16.62,-13.289 28.19,-13.289 h 95.81 c 11.56,0 20.97,4.4297 28.18,13.289 7.23,8.8711 10.84,19.0122 10.84,30.4412 z m 28.04,-2.051 c 0,-19.2183 -6.11,-35.648 -18.33,-49.2886 C 4537.09,55.5586 4521.34,48.75 4502.07,48.75 h -97.06 c -19.56,0 -35.66,6.7383 -48.32,20.2305 -12.65,13.4883 -18.97,29.9883 -18.97,49.4995 v 67.168 c 0,19.801 6.25,36.032 18.76,48.641 12.52,12.633 28.69,18.961 48.53,18.961 h 95.34 c 19.56,0 35.66,-6.398 48.31,-19.168 12.66,-12.773 18.99,-28.922 18.99,-48.434 V 118.48" /><path
         id="path258"
         style="fill:#231f20;fill-opacity:1;fill-rule:nonzero;stroke:none"
         d="m 4703.04,48.75 h -26.31 c -19.56,0 -35.66,6.7617 -48.32,20.2891 -12.66,13.4922 -18.97,30.0507 -18.97,49.6089 v 205.774 h 28.02 v -72.461 h 64.29 v -28.063 h -64.29 V 120.66 c 0,-11.461 3.63,-21.6483 10.86,-30.5311 7.25,-8.8789 16.65,-13.3281 28.24,-13.3281 h 26.48 V 48.75" /><path
         id="path260"
         style="fill:#231f20;fill-opacity:1;fill-rule:nonzero;stroke:none"
         d="m 4927.68,120.531 v 60.481 c 0,11.726 -3.6,22.027 -10.83,30.898 -7.23,8.86 -16.63,13.281 -28.19,13.281 h -95.81 c -11.57,0 -20.95,-4.421 -28.18,-13.281 -7.23,-8.871 -10.84,-19.172 -10.84,-30.898 v -60.481 c 0,-11.429 3.61,-21.5701 10.84,-30.4412 7.23,-8.8593 16.61,-13.289 28.18,-13.289 h 95.81 c 11.56,0 20.96,4.4297 28.19,13.289 7.23,8.8711 10.83,19.0122 10.83,30.4412 z m 28.04,-2.051 c 0,-19.2183 -6.12,-35.648 -18.32,-49.2886 C 4925.16,55.5586 4909.42,48.75 4890.15,48.75 h -97.06 c -19.56,0 -35.67,6.7383 -48.32,20.2305 -12.66,13.4883 -18.98,29.9883 -18.98,49.4995 v 67.168 c 0,19.801 6.25,36.032 18.76,48.641 12.52,12.633 28.69,18.961 48.54,18.961 h 95.34 c 19.55,0 35.65,-6.398 48.31,-19.168 12.65,-12.773 18.98,-28.922 18.98,-48.434 V 118.48" /><path
         id="path262"
         style="fill:#231f20;fill-opacity:1;fill-rule:nonzero;stroke:none"
         d="m 5186.1,226.488 h -131.16 c -11.22,0 -20.49,-4.457 -27.82,-13.359 -7.33,-8.918 -11,-19.129 -11,-30.641 V 48.75 h -28.05 v 135.891 c 0,19.57 6.31,36.097 18.95,49.621 12.62,13.519 28.69,20.289 48.22,20.289 h 130.86 v -28.063" /><path
         id="path264"
         style="fill:#231f20;fill-opacity:1;fill-rule:nonzero;stroke:none"
         d="m 5366.39,131.148 c -4.03,5.75 -10.22,8.633 -18.53,8.633 h -98.81 c -15.25,0 -27.6,5.629 -37.09,16.891 -9.51,11.258 -14.25,24.68 -14.25,40.277 0,15.582 4.74,29.071 14.25,40.481 9.49,11.39 21.84,17.121 37.09,17.121 h 145.39 v -28.063 h -138.92 c -18.12,0 -27.17,-9.488 -27.17,-28.468 0,-8.34 1.99,-15.391 6.03,-21.141 4.02,-5.758 10.07,-8.609 18.12,-8.609 h 99.21 c 15.26,0 27.63,-5.622 37.12,-16.84 9.49,-11.219 14.24,-24.598 14.24,-40.121 0,-16.977 -4.32,-31.2192 -12.95,-42.7074 -9.2,-12.6602 -22,-18.9922 -38.41,-18.9922 h -145.37 v 27.6211 h 138.94 c 18.08,0 27.14,10.9179 27.14,32.7895 0,8.339 -2.01,15.378 -6.03,21.128" /><path
         id="path266"
         style="fill:#231f20;fill-opacity:1;fill-rule:nonzero;stroke:none"
         d="m 5663.21,118.648 c 0,-20.1363 -6.19,-36.8277 -18.56,-50.0464 C 5632.28,55.3711 5616.04,48.75 5595.9,48.75 c -12.65,0 -28.32,0 -47.02,0 l -47.46,0.4414 0.43,27.6094 h 94.35 c 11.55,0 20.94,4.4492 28.15,13.3594 7.21,8.9296 10.81,19.1288 10.81,30.6488 v 60.82 c 0,11.793 -3.46,21.723 -10.38,29.769 -6.93,8.043 -16.14,12.071 -27.68,12.071 h -92.99 c -11.24,0 -20.84,-3.949 -28.75,-11.848 -7.93,-7.93 -11.9,-17.48 -11.9,-28.699 V 0 h -28.04 v 179.898 c 0,19.563 6.55,36.372 19.62,50.481 13.1,14.09 29.43,21.141 48.97,21.141 h 92.75 c 19.57,0 35.52,-6.04 47.89,-18.129 12.37,-12.082 18.56,-27.891 18.56,-47.45 v -67.293" /><path
         id="path268"
         style="fill:#231f20;fill-opacity:1;fill-rule:nonzero;stroke:none"
         d="m 5897.54,120.531 v 60.481 c 0,11.726 -3.61,22.027 -10.83,30.898 -7.22,8.86 -16.63,13.281 -28.19,13.281 h -95.81 c -11.56,0 -20.95,-4.421 -28.19,-13.281 -7.22,-8.871 -10.84,-19.172 -10.84,-30.898 v -60.481 c 0,-11.429 3.62,-21.5701 10.84,-30.4412 7.24,-8.8593 16.63,-13.289 28.19,-13.289 h 95.81 c 11.56,0 20.97,4.4297 28.19,13.289 7.22,8.8711 10.83,19.0122 10.83,30.4412 z m 28.06,-2.051 c 0,-19.2183 -6.11,-35.648 -18.35,-49.2886 C 5895.02,55.5586 5879.29,48.75 5860.01,48.75 h -97.07 c -19.55,0 -35.66,6.7383 -48.3,20.2305 -12.66,13.4883 -18.99,29.9883 -18.99,49.4995 v 67.168 c 0,19.801 6.26,36.032 18.78,48.641 12.5,12.633 28.68,18.961 48.51,18.961 h 95.34 c 19.57,0 35.67,-6.398 48.32,-19.168 12.66,-12.773 19,-28.922 19,-48.434 V 118.48" /><path
         id="path270"
         style="fill:#231f20;fill-opacity:1;fill-rule:nonzero;stroke:none"
         d="m 6155.95,226.488 h -131.14 c -11.22,0 -20.49,-4.457 -27.82,-13.359 -7.34,-8.918 -11.01,-19.129 -11.01,-30.641 V 48.75 h -28.04 v 135.891 c 0,19.57 6.32,36.097 18.94,49.621 12.63,13.519 28.7,20.289 48.21,20.289 h 130.86 v -28.063" /><path
         id="path272"
         style="fill:#231f20;fill-opacity:1;fill-rule:nonzero;stroke:none"
         d="m 6268.13,48.75 h -26.33 c -19.54,0 -35.65,6.7617 -48.32,20.2891 -12.66,13.4922 -18.97,30.0507 -18.97,49.6089 v 205.774 h 28.03 v -72.461 h 64.3 v -28.063 h -64.3 V 120.66 c 0,-11.461 3.63,-21.6483 10.87,-30.5311 7.23,-8.8789 16.65,-13.3281 28.23,-13.3281 h 26.49 V 48.75" /></g></g></svg>